<?xml version="1.0" encoding="utf-8" standalone="no"?>
<!DOCTYPE svg PUBLIC "-//W3C//DTD SVG 1.1//EN"
  "http://www.w3.org/Graphics/SVG/1.1/DTD/svg11.dtd">
<!-- Created with matplotlib (https://matplotlib.org/) -->
<svg height="162pt" version="1.1" viewBox="0 0 216 162" width="216pt" xmlns="http://www.w3.org/2000/svg" xmlns:xlink="http://www.w3.org/1999/xlink">
 <metadata>
  <rdf:RDF xmlns:cc="http://creativecommons.org/ns#" xmlns:dc="http://purl.org/dc/elements/1.1/" xmlns:rdf="http://www.w3.org/1999/02/22-rdf-syntax-ns#">
   <cc:Work>
    <dc:type rdf:resource="http://purl.org/dc/dcmitype/StillImage"/>
    <dc:date>2021-01-14T13:37:28.479261</dc:date>
    <dc:format>image/svg+xml</dc:format>
    <dc:creator>
     <cc:Agent>
      <dc:title>Matplotlib v3.3.3, https://matplotlib.org/</dc:title>
     </cc:Agent>
    </dc:creator>
   </cc:Work>
  </rdf:RDF>
 </metadata>
 <defs>
  <style type="text/css">*{stroke-linecap:butt;stroke-linejoin:round;}</style>
 </defs>
 <g id="figure_1">
  <g id="patch_1">
   <path d="M 0 162 
L 216 162 
L 216 0 
L 0 0 
z
" style="fill:#ffffff;"/>
  </g>
  <g id="axes_1">
   <g id="patch_2">
    <path d="M 10.8 120.547457 
L 197.151066 120.547457 
L 197.151066 10.8 
L 10.8 10.8 
z
" style="fill:#ffffff;"/>
   </g>
   <g id="matplotlib.axis_1">
    <g id="xtick_1">
     <g id="text_1">
      <!-- 0 -->
      <g style="fill:#262626;" transform="translate(19.157559 138.242268)rotate(-45)scale(0.08 -0.08)">
       <defs>
        <path d="M 4.15625 35.296875 
Q 4.15625 48 6.765625 55.734375 
Q 9.375 63.484375 14.515625 67.671875 
Q 19.671875 71.875 27.484375 71.875 
Q 33.25 71.875 37.59375 69.546875 
Q 41.9375 67.234375 44.765625 62.859375 
Q 47.609375 58.5 49.21875 52.21875 
Q 50.828125 45.953125 50.828125 35.296875 
Q 50.828125 22.703125 48.234375 14.96875 
Q 45.65625 7.234375 40.5 3 
Q 35.359375 -1.21875 27.484375 -1.21875 
Q 17.140625 -1.21875 11.234375 6.203125 
Q 4.15625 15.140625 4.15625 35.296875 
z
M 13.1875 35.296875 
Q 13.1875 17.671875 17.3125 11.828125 
Q 21.4375 6 27.484375 6 
Q 33.546875 6 37.671875 11.859375 
Q 41.796875 17.71875 41.796875 35.296875 
Q 41.796875 52.984375 37.671875 58.78125 
Q 33.546875 64.59375 27.390625 64.59375 
Q 21.34375 64.59375 17.71875 59.46875 
Q 13.1875 52.9375 13.1875 35.296875 
z
" id="ArialMT-48"/>
       </defs>
       <use xlink:href="#ArialMT-48"/>
      </g>
     </g>
    </g>
    <g id="xtick_2">
     <g id="text_2">
      <!-- 2000 -->
      <g style="fill:#262626;" transform="translate(49.564181 147.679492)rotate(-45)scale(0.08 -0.08)">
       <defs>
        <path d="M 50.34375 8.453125 
L 50.34375 0 
L 3.03125 0 
Q 2.9375 3.171875 4.046875 6.109375 
Q 5.859375 10.9375 9.828125 15.625 
Q 13.8125 20.3125 21.34375 26.46875 
Q 33.015625 36.03125 37.109375 41.625 
Q 41.21875 47.21875 41.21875 52.203125 
Q 41.21875 57.421875 37.46875 61 
Q 33.734375 64.59375 27.734375 64.59375 
Q 21.390625 64.59375 17.578125 60.78125 
Q 13.765625 56.984375 13.71875 50.25 
L 4.6875 51.171875 
Q 5.609375 61.28125 11.65625 66.578125 
Q 17.71875 71.875 27.9375 71.875 
Q 38.234375 71.875 44.234375 66.15625 
Q 50.25 60.453125 50.25 52 
Q 50.25 47.703125 48.484375 43.546875 
Q 46.734375 39.40625 42.65625 34.8125 
Q 38.578125 30.21875 29.109375 22.21875 
Q 21.1875 15.578125 18.9375 13.203125 
Q 16.703125 10.84375 15.234375 8.453125 
z
" id="ArialMT-50"/>
       </defs>
       <use xlink:href="#ArialMT-50"/>
       <use x="55.615234" xlink:href="#ArialMT-48"/>
       <use x="111.230469" xlink:href="#ArialMT-48"/>
       <use x="166.845703" xlink:href="#ArialMT-48"/>
      </g>
     </g>
    </g>
    <g id="xtick_3">
     <g id="text_3">
      <!-- 4000 -->
      <g style="fill:#262626;" transform="translate(84.689416 147.679492)rotate(-45)scale(0.08 -0.08)">
       <defs>
        <path d="M 32.328125 0 
L 32.328125 17.140625 
L 1.265625 17.140625 
L 1.265625 25.203125 
L 33.9375 71.578125 
L 41.109375 71.578125 
L 41.109375 25.203125 
L 50.78125 25.203125 
L 50.78125 17.140625 
L 41.109375 17.140625 
L 41.109375 0 
z
M 32.328125 25.203125 
L 32.328125 57.46875 
L 9.90625 25.203125 
z
" id="ArialMT-52"/>
       </defs>
       <use xlink:href="#ArialMT-52"/>
       <use x="55.615234" xlink:href="#ArialMT-48"/>
       <use x="111.230469" xlink:href="#ArialMT-48"/>
       <use x="166.845703" xlink:href="#ArialMT-48"/>
      </g>
     </g>
    </g>
    <g id="xtick_4">
     <g id="text_4">
      <!-- 6000 -->
      <g style="fill:#262626;" transform="translate(119.81465 147.679492)rotate(-45)scale(0.08 -0.08)">
       <defs>
        <path d="M 49.75 54.046875 
L 41.015625 53.375 
Q 39.84375 58.546875 37.703125 60.890625 
Q 34.125 64.65625 28.90625 64.65625 
Q 24.703125 64.65625 21.53125 62.3125 
Q 17.390625 59.28125 14.984375 53.46875 
Q 12.59375 47.65625 12.5 36.921875 
Q 15.671875 41.75 20.265625 44.09375 
Q 24.859375 46.4375 29.890625 46.4375 
Q 38.671875 46.4375 44.84375 39.96875 
Q 51.03125 33.5 51.03125 23.25 
Q 51.03125 16.5 48.125 10.71875 
Q 45.21875 4.9375 40.140625 1.859375 
Q 35.0625 -1.21875 28.609375 -1.21875 
Q 17.625 -1.21875 10.6875 6.859375 
Q 3.765625 14.9375 3.765625 33.5 
Q 3.765625 54.25 11.421875 63.671875 
Q 18.109375 71.875 29.4375 71.875 
Q 37.890625 71.875 43.28125 67.140625 
Q 48.6875 62.40625 49.75 54.046875 
z
M 13.875 23.1875 
Q 13.875 18.65625 15.796875 14.5 
Q 17.71875 10.359375 21.1875 8.171875 
Q 24.65625 6 28.46875 6 
Q 34.03125 6 38.03125 10.484375 
Q 42.046875 14.984375 42.046875 22.703125 
Q 42.046875 30.125 38.078125 34.390625 
Q 34.125 38.671875 28.125 38.671875 
Q 22.171875 38.671875 18.015625 34.390625 
Q 13.875 30.125 13.875 23.1875 
z
" id="ArialMT-54"/>
       </defs>
       <use xlink:href="#ArialMT-54"/>
       <use x="55.615234" xlink:href="#ArialMT-48"/>
       <use x="111.230469" xlink:href="#ArialMT-48"/>
       <use x="166.845703" xlink:href="#ArialMT-48"/>
      </g>
     </g>
    </g>
    <g id="xtick_5">
     <g id="text_5">
      <!-- 8000 -->
      <g style="fill:#262626;" transform="translate(154.939885 147.679492)rotate(-45)scale(0.08 -0.08)">
       <defs>
        <path d="M 17.671875 38.8125 
Q 12.203125 40.828125 9.5625 44.53125 
Q 6.9375 48.25 6.9375 53.421875 
Q 6.9375 61.234375 12.546875 66.546875 
Q 18.171875 71.875 27.484375 71.875 
Q 36.859375 71.875 42.578125 66.421875 
Q 48.296875 60.984375 48.296875 53.171875 
Q 48.296875 48.1875 45.671875 44.5 
Q 43.0625 40.828125 37.75 38.8125 
Q 44.34375 36.671875 47.78125 31.875 
Q 51.21875 27.09375 51.21875 20.453125 
Q 51.21875 11.28125 44.71875 5.03125 
Q 38.234375 -1.21875 27.640625 -1.21875 
Q 17.046875 -1.21875 10.546875 5.046875 
Q 4.046875 11.328125 4.046875 20.703125 
Q 4.046875 27.6875 7.59375 32.390625 
Q 11.140625 37.109375 17.671875 38.8125 
z
M 15.921875 53.71875 
Q 15.921875 48.640625 19.1875 45.40625 
Q 22.46875 42.1875 27.6875 42.1875 
Q 32.765625 42.1875 36.015625 45.375 
Q 39.265625 48.578125 39.265625 53.21875 
Q 39.265625 58.0625 35.90625 61.359375 
Q 32.5625 64.65625 27.59375 64.65625 
Q 22.5625 64.65625 19.234375 61.421875 
Q 15.921875 58.203125 15.921875 53.71875 
z
M 13.09375 20.65625 
Q 13.09375 16.890625 14.875 13.375 
Q 16.65625 9.859375 20.171875 7.921875 
Q 23.6875 6 27.734375 6 
Q 34.03125 6 38.125 10.046875 
Q 42.234375 14.109375 42.234375 20.359375 
Q 42.234375 26.703125 38.015625 30.859375 
Q 33.796875 35.015625 27.4375 35.015625 
Q 21.234375 35.015625 17.15625 30.90625 
Q 13.09375 26.8125 13.09375 20.65625 
z
" id="ArialMT-56"/>
       </defs>
       <use xlink:href="#ArialMT-56"/>
       <use x="55.615234" xlink:href="#ArialMT-48"/>
       <use x="111.230469" xlink:href="#ArialMT-48"/>
       <use x="166.845703" xlink:href="#ArialMT-48"/>
      </g>
     </g>
    </g>
    <g id="xtick_6">
     <g id="text_6">
      <!-- 10000 -->
      <g style="fill:#262626;" transform="translate(188.492249 150.825233)rotate(-45)scale(0.08 -0.08)">
       <defs>
        <path d="M 37.25 0 
L 28.46875 0 
L 28.46875 56 
Q 25.296875 52.984375 20.140625 49.953125 
Q 14.984375 46.921875 10.890625 45.40625 
L 10.890625 53.90625 
Q 18.265625 57.375 23.78125 62.296875 
Q 29.296875 67.234375 31.59375 71.875 
L 37.25 71.875 
z
" id="ArialMT-49"/>
       </defs>
       <use xlink:href="#ArialMT-49"/>
       <use x="55.615234" xlink:href="#ArialMT-48"/>
       <use x="111.230469" xlink:href="#ArialMT-48"/>
       <use x="166.845703" xlink:href="#ArialMT-48"/>
       <use x="222.460938" xlink:href="#ArialMT-48"/>
      </g>
     </g>
    </g>
   </g>
   <g id="patch_3">
    <path clip-path="url(#p604af17c55)" d="M 19.270503 120.547457 
L 22.658704 120.547457 
L 22.658704 16.026069 
L 19.270503 16.026069 
z
" style="fill:#337ab7;stroke:#ffffff;stroke-linejoin:miter;stroke-width:0.3;"/>
   </g>
   <g id="patch_4">
    <path clip-path="url(#p604af17c55)" d="M 22.658704 120.547457 
L 26.046905 120.547457 
L 26.046905 119.538518 
L 22.658704 119.538518 
z
" style="fill:#337ab7;stroke:#ffffff;stroke-linejoin:miter;stroke-width:0.3;"/>
   </g>
   <g id="patch_5">
    <path clip-path="url(#p604af17c55)" d="M 26.046905 120.547457 
L 29.435107 120.547457 
L 29.435107 120.364905 
L 26.046905 120.364905 
z
" style="fill:#337ab7;stroke:#ffffff;stroke-linejoin:miter;stroke-width:0.3;"/>
   </g>
   <g id="patch_6">
    <path clip-path="url(#p604af17c55)" d="M 29.435107 120.547457 
L 32.823308 120.547457 
L 32.823308 120.468155 
L 29.435107 120.468155 
z
" style="fill:#337ab7;stroke:#ffffff;stroke-linejoin:miter;stroke-width:0.3;"/>
   </g>
   <g id="patch_7">
    <path clip-path="url(#p604af17c55)" d="M 32.823308 120.547457 
L 36.211509 120.547457 
L 36.211509 120.513695 
L 32.823308 120.513695 
z
" style="fill:#337ab7;stroke:#ffffff;stroke-linejoin:miter;stroke-width:0.3;"/>
   </g>
   <g id="patch_8">
    <path clip-path="url(#p604af17c55)" d="M 36.211509 120.547457 
L 39.59971 120.547457 
L 39.59971 120.521546 
L 36.211509 120.521546 
z
" style="fill:#337ab7;stroke:#ffffff;stroke-linejoin:miter;stroke-width:0.3;"/>
   </g>
   <g id="patch_9">
    <path clip-path="url(#p604af17c55)" d="M 39.59971 120.547457 
L 42.987911 120.547457 
L 42.987911 120.534109 
L 39.59971 120.534109 
z
" style="fill:#337ab7;stroke:#ffffff;stroke-linejoin:miter;stroke-width:0.3;"/>
   </g>
   <g id="patch_10">
    <path clip-path="url(#p604af17c55)" d="M 42.987911 120.547457 
L 46.376113 120.547457 
L 46.376113 120.537642 
L 42.987911 120.537642 
z
" style="fill:#337ab7;stroke:#ffffff;stroke-linejoin:miter;stroke-width:0.3;"/>
   </g>
   <g id="patch_11">
    <path clip-path="url(#p604af17c55)" d="M 46.376113 120.547457 
L 49.764314 120.547457 
L 49.764314 120.534501 
L 46.376113 120.534501 
z
" style="fill:#337ab7;stroke:#ffffff;stroke-linejoin:miter;stroke-width:0.3;"/>
   </g>
   <g id="patch_12">
    <path clip-path="url(#p604af17c55)" d="M 49.764314 120.547457 
L 53.152515 120.547457 
L 53.152515 120.542746 
L 49.764314 120.542746 
z
" style="fill:#337ab7;stroke:#ffffff;stroke-linejoin:miter;stroke-width:0.3;"/>
   </g>
   <g id="patch_13">
    <path clip-path="url(#p604af17c55)" d="M 53.152515 120.547457 
L 56.540716 120.547457 
L 56.540716 120.541961 
L 53.152515 120.541961 
z
" style="fill:#337ab7;stroke:#ffffff;stroke-linejoin:miter;stroke-width:0.3;"/>
   </g>
   <g id="patch_14">
    <path clip-path="url(#p604af17c55)" d="M 56.540716 120.547457 
L 59.928917 120.547457 
L 59.928917 120.545494 
L 56.540716 120.545494 
z
" style="fill:#337ab7;stroke:#ffffff;stroke-linejoin:miter;stroke-width:0.3;"/>
   </g>
   <g id="patch_15">
    <path clip-path="url(#p604af17c55)" d="M 59.928917 120.547457 
L 63.317119 120.547457 
L 63.317119 120.543531 
L 59.928917 120.543531 
z
" style="fill:#337ab7;stroke:#ffffff;stroke-linejoin:miter;stroke-width:0.3;"/>
   </g>
   <g id="patch_16">
    <path clip-path="url(#p604af17c55)" d="M 63.317119 120.547457 
L 66.70532 120.547457 
L 66.70532 120.545101 
L 63.317119 120.545101 
z
" style="fill:#337ab7;stroke:#ffffff;stroke-linejoin:miter;stroke-width:0.3;"/>
   </g>
   <g id="patch_17">
    <path clip-path="url(#p604af17c55)" d="M 66.70532 120.547457 
L 70.093521 120.547457 
L 70.093521 120.546279 
L 66.70532 120.546279 
z
" style="fill:#337ab7;stroke:#ffffff;stroke-linejoin:miter;stroke-width:0.3;"/>
   </g>
   <g id="patch_18">
    <path clip-path="url(#p604af17c55)" d="M 70.093521 120.547457 
L 73.481722 120.547457 
L 73.481722 120.546672 
L 70.093521 120.546672 
z
" style="fill:#337ab7;stroke:#ffffff;stroke-linejoin:miter;stroke-width:0.3;"/>
   </g>
   <g id="patch_19">
    <path clip-path="url(#p604af17c55)" d="M 73.481722 120.547457 
L 76.869923 120.547457 
L 76.869923 120.545494 
L 73.481722 120.545494 
z
" style="fill:#337ab7;stroke:#ffffff;stroke-linejoin:miter;stroke-width:0.3;"/>
   </g>
   <g id="patch_20">
    <path clip-path="url(#p604af17c55)" d="M 76.869923 120.547457 
L 80.258125 120.547457 
L 80.258125 120.546672 
L 76.869923 120.546672 
z
" style="fill:#337ab7;stroke:#ffffff;stroke-linejoin:miter;stroke-width:0.3;"/>
   </g>
   <g id="patch_21">
    <path clip-path="url(#p604af17c55)" d="M 80.258125 120.547457 
L 83.646326 120.547457 
L 83.646326 120.546672 
L 80.258125 120.546672 
z
" style="fill:#337ab7;stroke:#ffffff;stroke-linejoin:miter;stroke-width:0.3;"/>
   </g>
   <g id="patch_22">
    <path clip-path="url(#p604af17c55)" d="M 83.646326 120.547457 
L 87.034527 120.547457 
L 87.034527 120.547457 
L 83.646326 120.547457 
z
" style="fill:#337ab7;stroke:#ffffff;stroke-linejoin:miter;stroke-width:0.3;"/>
   </g>
   <g id="patch_23">
    <path clip-path="url(#p604af17c55)" d="M 87.034527 120.547457 
L 90.422728 120.547457 
L 90.422728 120.547064 
L 87.034527 120.547064 
z
" style="fill:#337ab7;stroke:#ffffff;stroke-linejoin:miter;stroke-width:0.3;"/>
   </g>
   <g id="patch_24">
    <path clip-path="url(#p604af17c55)" d="M 90.422728 120.547457 
L 93.810929 120.547457 
L 93.810929 120.547064 
L 90.422728 120.547064 
z
" style="fill:#337ab7;stroke:#ffffff;stroke-linejoin:miter;stroke-width:0.3;"/>
   </g>
   <g id="patch_25">
    <path clip-path="url(#p604af17c55)" d="M 93.810929 120.547457 
L 97.199131 120.547457 
L 97.199131 120.546279 
L 93.810929 120.546279 
z
" style="fill:#337ab7;stroke:#ffffff;stroke-linejoin:miter;stroke-width:0.3;"/>
   </g>
   <g id="patch_26">
    <path clip-path="url(#p604af17c55)" d="M 97.199131 120.547457 
L 100.587332 120.547457 
L 100.587332 120.545886 
L 97.199131 120.545886 
z
" style="fill:#337ab7;stroke:#ffffff;stroke-linejoin:miter;stroke-width:0.3;"/>
   </g>
   <g id="patch_27">
    <path clip-path="url(#p604af17c55)" d="M 100.587332 120.547457 
L 103.975533 120.547457 
L 103.975533 120.546672 
L 100.587332 120.546672 
z
" style="fill:#337ab7;stroke:#ffffff;stroke-linejoin:miter;stroke-width:0.3;"/>
   </g>
   <g id="patch_28">
    <path clip-path="url(#p604af17c55)" d="M 103.975533 120.547457 
L 107.363734 120.547457 
L 107.363734 120.546279 
L 103.975533 120.546279 
z
" style="fill:#337ab7;stroke:#ffffff;stroke-linejoin:miter;stroke-width:0.3;"/>
   </g>
   <g id="patch_29">
    <path clip-path="url(#p604af17c55)" d="M 107.363734 120.547457 
L 110.751935 120.547457 
L 110.751935 120.544709 
L 107.363734 120.544709 
z
" style="fill:#337ab7;stroke:#ffffff;stroke-linejoin:miter;stroke-width:0.3;"/>
   </g>
   <g id="patch_30">
    <path clip-path="url(#p604af17c55)" d="M 110.751935 120.547457 
L 114.140137 120.547457 
L 114.140137 120.547457 
L 110.751935 120.547457 
z
" style="fill:#337ab7;stroke:#ffffff;stroke-linejoin:miter;stroke-width:0.3;"/>
   </g>
   <g id="patch_31">
    <path clip-path="url(#p604af17c55)" d="M 114.140137 120.547457 
L 117.528338 120.547457 
L 117.528338 120.547064 
L 114.140137 120.547064 
z
" style="fill:#337ab7;stroke:#ffffff;stroke-linejoin:miter;stroke-width:0.3;"/>
   </g>
   <g id="patch_32">
    <path clip-path="url(#p604af17c55)" d="M 117.528338 120.547457 
L 120.916539 120.547457 
L 120.916539 120.547064 
L 117.528338 120.547064 
z
" style="fill:#337ab7;stroke:#ffffff;stroke-linejoin:miter;stroke-width:0.3;"/>
   </g>
   <g id="patch_33">
    <path clip-path="url(#p604af17c55)" d="M 120.916539 120.547457 
L 124.30474 120.547457 
L 124.30474 120.547457 
L 120.916539 120.547457 
z
" style="fill:#337ab7;stroke:#ffffff;stroke-linejoin:miter;stroke-width:0.3;"/>
   </g>
   <g id="patch_34">
    <path clip-path="url(#p604af17c55)" d="M 124.30474 120.547457 
L 127.692941 120.547457 
L 127.692941 120.547457 
L 124.30474 120.547457 
z
" style="fill:#337ab7;stroke:#ffffff;stroke-linejoin:miter;stroke-width:0.3;"/>
   </g>
   <g id="patch_35">
    <path clip-path="url(#p604af17c55)" d="M 127.692941 120.547457 
L 131.081143 120.547457 
L 131.081143 120.546279 
L 127.692941 120.546279 
z
" style="fill:#337ab7;stroke:#ffffff;stroke-linejoin:miter;stroke-width:0.3;"/>
   </g>
   <g id="patch_36">
    <path clip-path="url(#p604af17c55)" d="M 131.081143 120.547457 
L 134.469344 120.547457 
L 134.469344 120.547064 
L 131.081143 120.547064 
z
" style="fill:#337ab7;stroke:#ffffff;stroke-linejoin:miter;stroke-width:0.3;"/>
   </g>
   <g id="patch_37">
    <path clip-path="url(#p604af17c55)" d="M 134.469344 120.547457 
L 137.857545 120.547457 
L 137.857545 120.547457 
L 134.469344 120.547457 
z
" style="fill:#337ab7;stroke:#ffffff;stroke-linejoin:miter;stroke-width:0.3;"/>
   </g>
   <g id="patch_38">
    <path clip-path="url(#p604af17c55)" d="M 137.857545 120.547457 
L 141.245746 120.547457 
L 141.245746 120.547457 
L 137.857545 120.547457 
z
" style="fill:#337ab7;stroke:#ffffff;stroke-linejoin:miter;stroke-width:0.3;"/>
   </g>
   <g id="patch_39">
    <path clip-path="url(#p604af17c55)" d="M 141.245746 120.547457 
L 144.633947 120.547457 
L 144.633947 120.547457 
L 141.245746 120.547457 
z
" style="fill:#337ab7;stroke:#ffffff;stroke-linejoin:miter;stroke-width:0.3;"/>
   </g>
   <g id="patch_40">
    <path clip-path="url(#p604af17c55)" d="M 144.633947 120.547457 
L 148.022149 120.547457 
L 148.022149 120.547457 
L 144.633947 120.547457 
z
" style="fill:#337ab7;stroke:#ffffff;stroke-linejoin:miter;stroke-width:0.3;"/>
   </g>
   <g id="patch_41">
    <path clip-path="url(#p604af17c55)" d="M 148.022149 120.547457 
L 151.41035 120.547457 
L 151.41035 120.547457 
L 148.022149 120.547457 
z
" style="fill:#337ab7;stroke:#ffffff;stroke-linejoin:miter;stroke-width:0.3;"/>
   </g>
   <g id="patch_42">
    <path clip-path="url(#p604af17c55)" d="M 151.41035 120.547457 
L 154.798551 120.547457 
L 154.798551 120.547064 
L 151.41035 120.547064 
z
" style="fill:#337ab7;stroke:#ffffff;stroke-linejoin:miter;stroke-width:0.3;"/>
   </g>
   <g id="patch_43">
    <path clip-path="url(#p604af17c55)" d="M 154.798551 120.547457 
L 158.186752 120.547457 
L 158.186752 120.547064 
L 154.798551 120.547064 
z
" style="fill:#337ab7;stroke:#ffffff;stroke-linejoin:miter;stroke-width:0.3;"/>
   </g>
   <g id="patch_44">
    <path clip-path="url(#p604af17c55)" d="M 158.186752 120.547457 
L 161.574953 120.547457 
L 161.574953 120.547457 
L 158.186752 120.547457 
z
" style="fill:#337ab7;stroke:#ffffff;stroke-linejoin:miter;stroke-width:0.3;"/>
   </g>
   <g id="patch_45">
    <path clip-path="url(#p604af17c55)" d="M 161.574953 120.547457 
L 164.963155 120.547457 
L 164.963155 120.547457 
L 161.574953 120.547457 
z
" style="fill:#337ab7;stroke:#ffffff;stroke-linejoin:miter;stroke-width:0.3;"/>
   </g>
   <g id="patch_46">
    <path clip-path="url(#p604af17c55)" d="M 164.963155 120.547457 
L 168.351356 120.547457 
L 168.351356 120.547457 
L 164.963155 120.547457 
z
" style="fill:#337ab7;stroke:#ffffff;stroke-linejoin:miter;stroke-width:0.3;"/>
   </g>
   <g id="patch_47">
    <path clip-path="url(#p604af17c55)" d="M 168.351356 120.547457 
L 171.739557 120.547457 
L 171.739557 120.547457 
L 168.351356 120.547457 
z
" style="fill:#337ab7;stroke:#ffffff;stroke-linejoin:miter;stroke-width:0.3;"/>
   </g>
   <g id="patch_48">
    <path clip-path="url(#p604af17c55)" d="M 171.739557 120.547457 
L 175.127758 120.547457 
L 175.127758 120.546672 
L 171.739557 120.546672 
z
" style="fill:#337ab7;stroke:#ffffff;stroke-linejoin:miter;stroke-width:0.3;"/>
   </g>
   <g id="patch_49">
    <path clip-path="url(#p604af17c55)" d="M 175.127758 120.547457 
L 178.515959 120.547457 
L 178.515959 120.546672 
L 175.127758 120.546672 
z
" style="fill:#337ab7;stroke:#ffffff;stroke-linejoin:miter;stroke-width:0.3;"/>
   </g>
   <g id="patch_50">
    <path clip-path="url(#p604af17c55)" d="M 178.515959 120.547457 
L 181.904161 120.547457 
L 181.904161 120.547064 
L 178.515959 120.547064 
z
" style="fill:#337ab7;stroke:#ffffff;stroke-linejoin:miter;stroke-width:0.3;"/>
   </g>
   <g id="patch_51">
    <path clip-path="url(#p604af17c55)" d="M 181.904161 120.547457 
L 185.292362 120.547457 
L 185.292362 120.547457 
L 181.904161 120.547457 
z
" style="fill:#337ab7;stroke:#ffffff;stroke-linejoin:miter;stroke-width:0.3;"/>
   </g>
   <g id="patch_52">
    <path clip-path="url(#p604af17c55)" d="M 185.292362 120.547457 
L 188.680563 120.547457 
L 188.680563 120.547064 
L 185.292362 120.547064 
z
" style="fill:#337ab7;stroke:#ffffff;stroke-linejoin:miter;stroke-width:0.3;"/>
   </g>
   <g id="patch_53">
    <path d="M 10.8 120.547457 
L 10.8 10.8 
" style="fill:none;"/>
   </g>
   <g id="patch_54">
    <path d="M 197.151066 120.547457 
L 197.151066 10.8 
" style="fill:none;"/>
   </g>
   <g id="patch_55">
    <path d="M 10.8 120.547457 
L 197.151066 120.547457 
" style="fill:none;"/>
   </g>
   <g id="patch_56">
    <path d="M 10.8 10.8 
L 197.151066 10.8 
" style="fill:none;"/>
   </g>
  </g>
 </g>
 <defs>
  <clipPath id="p604af17c55">
   <rect height="109.747457" width="186.351066" x="10.8" y="10.8"/>
  </clipPath>
 </defs>
</svg>
