<?xml version="1.0" encoding="utf-8" standalone="no"?>
<!DOCTYPE svg PUBLIC "-//W3C//DTD SVG 1.1//EN"
  "http://www.w3.org/Graphics/SVG/1.1/DTD/svg11.dtd">
<!-- Created with matplotlib (https://matplotlib.org/) -->
<svg height="162pt" version="1.1" viewBox="0 0 216 162" width="216pt" xmlns="http://www.w3.org/2000/svg" xmlns:xlink="http://www.w3.org/1999/xlink">
 <metadata>
  <rdf:RDF xmlns:cc="http://creativecommons.org/ns#" xmlns:dc="http://purl.org/dc/elements/1.1/" xmlns:rdf="http://www.w3.org/1999/02/22-rdf-syntax-ns#">
   <cc:Work>
    <dc:type rdf:resource="http://purl.org/dc/dcmitype/StillImage"/>
    <dc:date>2021-01-14T13:37:30.683014</dc:date>
    <dc:format>image/svg+xml</dc:format>
    <dc:creator>
     <cc:Agent>
      <dc:title>Matplotlib v3.3.3, https://matplotlib.org/</dc:title>
     </cc:Agent>
    </dc:creator>
   </cc:Work>
  </rdf:RDF>
 </metadata>
 <defs>
  <style type="text/css">*{stroke-linecap:butt;stroke-linejoin:round;}</style>
 </defs>
 <g id="figure_1">
  <g id="patch_1">
   <path d="M 0 162 
L 216 162 
L 216 0 
L 0 0 
z
" style="fill:#ffffff;"/>
  </g>
  <g id="axes_1">
   <g id="patch_2">
    <path d="M 10.8 120.547457 
L 203.050476 120.547457 
L 203.050476 10.8 
L 10.8 10.8 
z
" style="fill:#ffffff;"/>
   </g>
   <g id="matplotlib.axis_1">
    <g id="xtick_1">
     <g id="text_1">
      <!-- 0 -->
      <g style="fill:#262626;" transform="translate(19.410725 138.242268)rotate(-45)scale(0.08 -0.08)">
       <defs>
        <path d="M 4.15625 35.296875 
Q 4.15625 48 6.765625 55.734375 
Q 9.375 63.484375 14.515625 67.671875 
Q 19.671875 71.875 27.484375 71.875 
Q 33.25 71.875 37.59375 69.546875 
Q 41.9375 67.234375 44.765625 62.859375 
Q 47.609375 58.5 49.21875 52.21875 
Q 50.828125 45.953125 50.828125 35.296875 
Q 50.828125 22.703125 48.234375 14.96875 
Q 45.65625 7.234375 40.5 3 
Q 35.359375 -1.21875 27.484375 -1.21875 
Q 17.140625 -1.21875 11.234375 6.203125 
Q 4.15625 15.140625 4.15625 35.296875 
z
M 13.1875 35.296875 
Q 13.1875 17.671875 17.3125 11.828125 
Q 21.4375 6 27.484375 6 
Q 33.546875 6 37.671875 11.859375 
Q 41.796875 17.71875 41.796875 35.296875 
Q 41.796875 52.984375 37.671875 58.78125 
Q 33.546875 64.59375 27.390625 64.59375 
Q 21.34375 64.59375 17.71875 59.46875 
Q 13.1875 52.9375 13.1875 35.296875 
z
" id="ArialMT-48"/>
       </defs>
       <use xlink:href="#ArialMT-48"/>
      </g>
     </g>
    </g>
    <g id="xtick_2">
     <g id="text_2">
      <!-- 5000 -->
      <g style="fill:#262626;" transform="translate(58.31125 147.679492)rotate(-45)scale(0.08 -0.08)">
       <defs>
        <path d="M 4.15625 18.75 
L 13.375 19.53125 
Q 14.40625 12.796875 18.140625 9.390625 
Q 21.875 6 27.15625 6 
Q 33.5 6 37.890625 10.78125 
Q 42.28125 15.578125 42.28125 23.484375 
Q 42.28125 31 38.0625 35.34375 
Q 33.84375 39.703125 27 39.703125 
Q 22.75 39.703125 19.328125 37.765625 
Q 15.921875 35.84375 13.96875 32.765625 
L 5.71875 33.84375 
L 12.640625 70.609375 
L 48.25 70.609375 
L 48.25 62.203125 
L 19.671875 62.203125 
L 15.828125 42.96875 
Q 22.265625 47.46875 29.34375 47.46875 
Q 38.71875 47.46875 45.15625 40.96875 
Q 51.609375 34.46875 51.609375 24.265625 
Q 51.609375 14.546875 45.953125 7.46875 
Q 39.0625 -1.21875 27.15625 -1.21875 
Q 17.390625 -1.21875 11.203125 4.25 
Q 5.03125 9.71875 4.15625 18.75 
z
" id="ArialMT-53"/>
       </defs>
       <use xlink:href="#ArialMT-53"/>
       <use x="55.615234" xlink:href="#ArialMT-48"/>
       <use x="111.230469" xlink:href="#ArialMT-48"/>
       <use x="166.845703" xlink:href="#ArialMT-48"/>
      </g>
     </g>
    </g>
    <g id="xtick_3">
     <g id="text_3">
      <!-- 10000 -->
      <g style="fill:#262626;" transform="translate(100.357517 150.825233)rotate(-45)scale(0.08 -0.08)">
       <defs>
        <path d="M 37.25 0 
L 28.46875 0 
L 28.46875 56 
Q 25.296875 52.984375 20.140625 49.953125 
Q 14.984375 46.921875 10.890625 45.40625 
L 10.890625 53.90625 
Q 18.265625 57.375 23.78125 62.296875 
Q 29.296875 67.234375 31.59375 71.875 
L 37.25 71.875 
z
" id="ArialMT-49"/>
       </defs>
       <use xlink:href="#ArialMT-49"/>
       <use x="55.615234" xlink:href="#ArialMT-48"/>
       <use x="111.230469" xlink:href="#ArialMT-48"/>
       <use x="166.845703" xlink:href="#ArialMT-48"/>
       <use x="222.460938" xlink:href="#ArialMT-48"/>
      </g>
     </g>
    </g>
    <g id="xtick_4">
     <g id="text_4">
      <!-- 15000 -->
      <g style="fill:#262626;" transform="translate(143.976655 150.825233)rotate(-45)scale(0.08 -0.08)">
       <use xlink:href="#ArialMT-49"/>
       <use x="55.615234" xlink:href="#ArialMT-53"/>
       <use x="111.230469" xlink:href="#ArialMT-48"/>
       <use x="166.845703" xlink:href="#ArialMT-48"/>
       <use x="222.460938" xlink:href="#ArialMT-48"/>
      </g>
     </g>
    </g>
    <g id="xtick_5">
     <g id="text_5">
      <!-- 20000 -->
      <g style="fill:#262626;" transform="translate(187.595792 150.825233)rotate(-45)scale(0.08 -0.08)">
       <defs>
        <path d="M 50.34375 8.453125 
L 50.34375 0 
L 3.03125 0 
Q 2.9375 3.171875 4.046875 6.109375 
Q 5.859375 10.9375 9.828125 15.625 
Q 13.8125 20.3125 21.34375 26.46875 
Q 33.015625 36.03125 37.109375 41.625 
Q 41.21875 47.21875 41.21875 52.203125 
Q 41.21875 57.421875 37.46875 61 
Q 33.734375 64.59375 27.734375 64.59375 
Q 21.390625 64.59375 17.578125 60.78125 
Q 13.765625 56.984375 13.71875 50.25 
L 4.6875 51.171875 
Q 5.609375 61.28125 11.65625 66.578125 
Q 17.71875 71.875 27.9375 71.875 
Q 38.234375 71.875 44.234375 66.15625 
Q 50.25 60.453125 50.25 52 
Q 50.25 47.703125 48.484375 43.546875 
Q 46.734375 39.40625 42.65625 34.8125 
Q 38.578125 30.21875 29.109375 22.21875 
Q 21.1875 15.578125 18.9375 13.203125 
Q 16.703125 10.84375 15.234375 8.453125 
z
" id="ArialMT-50"/>
       </defs>
       <use xlink:href="#ArialMT-50"/>
       <use x="55.615234" xlink:href="#ArialMT-48"/>
       <use x="111.230469" xlink:href="#ArialMT-48"/>
       <use x="166.845703" xlink:href="#ArialMT-48"/>
       <use x="222.460938" xlink:href="#ArialMT-48"/>
      </g>
     </g>
    </g>
   </g>
   <g id="patch_3">
    <path clip-path="url(#pfe5a3320b4)" d="M 19.538658 120.547457 
L 23.034121 120.547457 
L 23.034121 16.026069 
L 19.538658 16.026069 
z
" style="fill:#337ab7;stroke:#ffffff;stroke-linejoin:miter;stroke-width:0.3;"/>
   </g>
   <g id="patch_4">
    <path clip-path="url(#pfe5a3320b4)" d="M 23.034121 120.547457 
L 26.529584 120.547457 
L 26.529584 116.353942 
L 23.034121 116.353942 
z
" style="fill:#337ab7;stroke:#ffffff;stroke-linejoin:miter;stroke-width:0.3;"/>
   </g>
   <g id="patch_5">
    <path clip-path="url(#pfe5a3320b4)" d="M 26.529584 120.547457 
L 30.025048 120.547457 
L 30.025048 119.222148 
L 26.529584 119.222148 
z
" style="fill:#337ab7;stroke:#ffffff;stroke-linejoin:miter;stroke-width:0.3;"/>
   </g>
   <g id="patch_6">
    <path clip-path="url(#pfe5a3320b4)" d="M 30.025048 120.547457 
L 33.520511 120.547457 
L 33.520511 120.211184 
L 30.025048 120.211184 
z
" style="fill:#337ab7;stroke:#ffffff;stroke-linejoin:miter;stroke-width:0.3;"/>
   </g>
   <g id="patch_7">
    <path clip-path="url(#pfe5a3320b4)" d="M 33.520511 120.547457 
L 37.015974 120.547457 
L 37.015974 120.507895 
L 33.520511 120.507895 
z
" style="fill:#337ab7;stroke:#ffffff;stroke-linejoin:miter;stroke-width:0.3;"/>
   </g>
   <g id="patch_8">
    <path clip-path="url(#pfe5a3320b4)" d="M 37.015974 120.547457 
L 40.511437 120.547457 
L 40.511437 120.230965 
L 37.015974 120.230965 
z
" style="fill:#337ab7;stroke:#ffffff;stroke-linejoin:miter;stroke-width:0.3;"/>
   </g>
   <g id="patch_9">
    <path clip-path="url(#pfe5a3320b4)" d="M 40.511437 120.547457 
L 44.0069 120.547457 
L 44.0069 120.547457 
L 40.511437 120.547457 
z
" style="fill:#337ab7;stroke:#ffffff;stroke-linejoin:miter;stroke-width:0.3;"/>
   </g>
   <g id="patch_10">
    <path clip-path="url(#pfe5a3320b4)" d="M 44.0069 120.547457 
L 47.502364 120.547457 
L 47.502364 120.408992 
L 44.0069 120.408992 
z
" style="fill:#337ab7;stroke:#ffffff;stroke-linejoin:miter;stroke-width:0.3;"/>
   </g>
   <g id="patch_11">
    <path clip-path="url(#pfe5a3320b4)" d="M 47.502364 120.547457 
L 50.997827 120.547457 
L 50.997827 120.507895 
L 47.502364 120.507895 
z
" style="fill:#337ab7;stroke:#ffffff;stroke-linejoin:miter;stroke-width:0.3;"/>
   </g>
   <g id="patch_12">
    <path clip-path="url(#pfe5a3320b4)" d="M 50.997827 120.547457 
L 54.49329 120.547457 
L 54.49329 120.547457 
L 50.997827 120.547457 
z
" style="fill:#337ab7;stroke:#ffffff;stroke-linejoin:miter;stroke-width:0.3;"/>
   </g>
   <g id="patch_13">
    <path clip-path="url(#pfe5a3320b4)" d="M 54.49329 120.547457 
L 57.988753 120.547457 
L 57.988753 120.349649 
L 54.49329 120.349649 
z
" style="fill:#337ab7;stroke:#ffffff;stroke-linejoin:miter;stroke-width:0.3;"/>
   </g>
   <g id="patch_14">
    <path clip-path="url(#pfe5a3320b4)" d="M 57.988753 120.547457 
L 61.484216 120.547457 
L 61.484216 120.527676 
L 57.988753 120.527676 
z
" style="fill:#337ab7;stroke:#ffffff;stroke-linejoin:miter;stroke-width:0.3;"/>
   </g>
   <g id="patch_15">
    <path clip-path="url(#pfe5a3320b4)" d="M 61.484216 120.547457 
L 64.97968 120.547457 
L 64.97968 120.428772 
L 61.484216 120.428772 
z
" style="fill:#337ab7;stroke:#ffffff;stroke-linejoin:miter;stroke-width:0.3;"/>
   </g>
   <g id="patch_16">
    <path clip-path="url(#pfe5a3320b4)" d="M 64.97968 120.547457 
L 68.475143 120.547457 
L 68.475143 120.547457 
L 64.97968 120.547457 
z
" style="fill:#337ab7;stroke:#ffffff;stroke-linejoin:miter;stroke-width:0.3;"/>
   </g>
   <g id="patch_17">
    <path clip-path="url(#pfe5a3320b4)" d="M 68.475143 120.547457 
L 71.970606 120.547457 
L 71.970606 120.527676 
L 68.475143 120.527676 
z
" style="fill:#337ab7;stroke:#ffffff;stroke-linejoin:miter;stroke-width:0.3;"/>
   </g>
   <g id="patch_18">
    <path clip-path="url(#pfe5a3320b4)" d="M 71.970606 120.547457 
L 75.466069 120.547457 
L 75.466069 120.488115 
L 71.970606 120.488115 
z
" style="fill:#337ab7;stroke:#ffffff;stroke-linejoin:miter;stroke-width:0.3;"/>
   </g>
   <g id="patch_19">
    <path clip-path="url(#pfe5a3320b4)" d="M 75.466069 120.547457 
L 78.961532 120.547457 
L 78.961532 120.547457 
L 75.466069 120.547457 
z
" style="fill:#337ab7;stroke:#ffffff;stroke-linejoin:miter;stroke-width:0.3;"/>
   </g>
   <g id="patch_20">
    <path clip-path="url(#pfe5a3320b4)" d="M 78.961532 120.547457 
L 82.456996 120.547457 
L 82.456996 120.488115 
L 78.961532 120.488115 
z
" style="fill:#337ab7;stroke:#ffffff;stroke-linejoin:miter;stroke-width:0.3;"/>
   </g>
   <g id="patch_21">
    <path clip-path="url(#pfe5a3320b4)" d="M 82.456996 120.547457 
L 85.952459 120.547457 
L 85.952459 120.547457 
L 82.456996 120.547457 
z
" style="fill:#337ab7;stroke:#ffffff;stroke-linejoin:miter;stroke-width:0.3;"/>
   </g>
   <g id="patch_22">
    <path clip-path="url(#pfe5a3320b4)" d="M 85.952459 120.547457 
L 89.447922 120.547457 
L 89.447922 120.547457 
L 85.952459 120.547457 
z
" style="fill:#337ab7;stroke:#ffffff;stroke-linejoin:miter;stroke-width:0.3;"/>
   </g>
   <g id="patch_23">
    <path clip-path="url(#pfe5a3320b4)" d="M 89.447922 120.547457 
L 92.943385 120.547457 
L 92.943385 120.547457 
L 89.447922 120.547457 
z
" style="fill:#337ab7;stroke:#ffffff;stroke-linejoin:miter;stroke-width:0.3;"/>
   </g>
   <g id="patch_24">
    <path clip-path="url(#pfe5a3320b4)" d="M 92.943385 120.547457 
L 96.438848 120.547457 
L 96.438848 120.547457 
L 92.943385 120.547457 
z
" style="fill:#337ab7;stroke:#ffffff;stroke-linejoin:miter;stroke-width:0.3;"/>
   </g>
   <g id="patch_25">
    <path clip-path="url(#pfe5a3320b4)" d="M 96.438848 120.547457 
L 99.934312 120.547457 
L 99.934312 120.547457 
L 96.438848 120.547457 
z
" style="fill:#337ab7;stroke:#ffffff;stroke-linejoin:miter;stroke-width:0.3;"/>
   </g>
   <g id="patch_26">
    <path clip-path="url(#pfe5a3320b4)" d="M 99.934312 120.547457 
L 103.429775 120.547457 
L 103.429775 120.547457 
L 99.934312 120.547457 
z
" style="fill:#337ab7;stroke:#ffffff;stroke-linejoin:miter;stroke-width:0.3;"/>
   </g>
   <g id="patch_27">
    <path clip-path="url(#pfe5a3320b4)" d="M 103.429775 120.547457 
L 106.925238 120.547457 
L 106.925238 120.547457 
L 103.429775 120.547457 
z
" style="fill:#337ab7;stroke:#ffffff;stroke-linejoin:miter;stroke-width:0.3;"/>
   </g>
   <g id="patch_28">
    <path clip-path="url(#pfe5a3320b4)" d="M 106.925238 120.547457 
L 110.420701 120.547457 
L 110.420701 120.547457 
L 106.925238 120.547457 
z
" style="fill:#337ab7;stroke:#ffffff;stroke-linejoin:miter;stroke-width:0.3;"/>
   </g>
   <g id="patch_29">
    <path clip-path="url(#pfe5a3320b4)" d="M 110.420701 120.547457 
L 113.916164 120.547457 
L 113.916164 120.547457 
L 110.420701 120.547457 
z
" style="fill:#337ab7;stroke:#ffffff;stroke-linejoin:miter;stroke-width:0.3;"/>
   </g>
   <g id="patch_30">
    <path clip-path="url(#pfe5a3320b4)" d="M 113.916164 120.547457 
L 117.411628 120.547457 
L 117.411628 120.527676 
L 113.916164 120.527676 
z
" style="fill:#337ab7;stroke:#ffffff;stroke-linejoin:miter;stroke-width:0.3;"/>
   </g>
   <g id="patch_31">
    <path clip-path="url(#pfe5a3320b4)" d="M 117.411628 120.547457 
L 120.907091 120.547457 
L 120.907091 120.547457 
L 117.411628 120.547457 
z
" style="fill:#337ab7;stroke:#ffffff;stroke-linejoin:miter;stroke-width:0.3;"/>
   </g>
   <g id="patch_32">
    <path clip-path="url(#pfe5a3320b4)" d="M 120.907091 120.547457 
L 124.402554 120.547457 
L 124.402554 120.547457 
L 120.907091 120.547457 
z
" style="fill:#337ab7;stroke:#ffffff;stroke-linejoin:miter;stroke-width:0.3;"/>
   </g>
   <g id="patch_33">
    <path clip-path="url(#pfe5a3320b4)" d="M 124.402554 120.547457 
L 127.898017 120.547457 
L 127.898017 120.547457 
L 124.402554 120.547457 
z
" style="fill:#337ab7;stroke:#ffffff;stroke-linejoin:miter;stroke-width:0.3;"/>
   </g>
   <g id="patch_34">
    <path clip-path="url(#pfe5a3320b4)" d="M 127.898017 120.547457 
L 131.39348 120.547457 
L 131.39348 120.547457 
L 127.898017 120.547457 
z
" style="fill:#337ab7;stroke:#ffffff;stroke-linejoin:miter;stroke-width:0.3;"/>
   </g>
   <g id="patch_35">
    <path clip-path="url(#pfe5a3320b4)" d="M 131.39348 120.547457 
L 134.888943 120.547457 
L 134.888943 120.547457 
L 131.39348 120.547457 
z
" style="fill:#337ab7;stroke:#ffffff;stroke-linejoin:miter;stroke-width:0.3;"/>
   </g>
   <g id="patch_36">
    <path clip-path="url(#pfe5a3320b4)" d="M 134.888943 120.547457 
L 138.384407 120.547457 
L 138.384407 120.547457 
L 134.888943 120.547457 
z
" style="fill:#337ab7;stroke:#ffffff;stroke-linejoin:miter;stroke-width:0.3;"/>
   </g>
   <g id="patch_37">
    <path clip-path="url(#pfe5a3320b4)" d="M 138.384407 120.547457 
L 141.87987 120.547457 
L 141.87987 120.547457 
L 138.384407 120.547457 
z
" style="fill:#337ab7;stroke:#ffffff;stroke-linejoin:miter;stroke-width:0.3;"/>
   </g>
   <g id="patch_38">
    <path clip-path="url(#pfe5a3320b4)" d="M 141.87987 120.547457 
L 145.375333 120.547457 
L 145.375333 120.547457 
L 141.87987 120.547457 
z
" style="fill:#337ab7;stroke:#ffffff;stroke-linejoin:miter;stroke-width:0.3;"/>
   </g>
   <g id="patch_39">
    <path clip-path="url(#pfe5a3320b4)" d="M 145.375333 120.547457 
L 148.870796 120.547457 
L 148.870796 120.547457 
L 145.375333 120.547457 
z
" style="fill:#337ab7;stroke:#ffffff;stroke-linejoin:miter;stroke-width:0.3;"/>
   </g>
   <g id="patch_40">
    <path clip-path="url(#pfe5a3320b4)" d="M 148.870796 120.547457 
L 152.366259 120.547457 
L 152.366259 120.547457 
L 148.870796 120.547457 
z
" style="fill:#337ab7;stroke:#ffffff;stroke-linejoin:miter;stroke-width:0.3;"/>
   </g>
   <g id="patch_41">
    <path clip-path="url(#pfe5a3320b4)" d="M 152.366259 120.547457 
L 155.861723 120.547457 
L 155.861723 120.547457 
L 152.366259 120.547457 
z
" style="fill:#337ab7;stroke:#ffffff;stroke-linejoin:miter;stroke-width:0.3;"/>
   </g>
   <g id="patch_42">
    <path clip-path="url(#pfe5a3320b4)" d="M 155.861723 120.547457 
L 159.357186 120.547457 
L 159.357186 120.547457 
L 155.861723 120.547457 
z
" style="fill:#337ab7;stroke:#ffffff;stroke-linejoin:miter;stroke-width:0.3;"/>
   </g>
   <g id="patch_43">
    <path clip-path="url(#pfe5a3320b4)" d="M 159.357186 120.547457 
L 162.852649 120.547457 
L 162.852649 120.547457 
L 159.357186 120.547457 
z
" style="fill:#337ab7;stroke:#ffffff;stroke-linejoin:miter;stroke-width:0.3;"/>
   </g>
   <g id="patch_44">
    <path clip-path="url(#pfe5a3320b4)" d="M 162.852649 120.547457 
L 166.348112 120.547457 
L 166.348112 120.547457 
L 162.852649 120.547457 
z
" style="fill:#337ab7;stroke:#ffffff;stroke-linejoin:miter;stroke-width:0.3;"/>
   </g>
   <g id="patch_45">
    <path clip-path="url(#pfe5a3320b4)" d="M 166.348112 120.547457 
L 169.843575 120.547457 
L 169.843575 120.547457 
L 166.348112 120.547457 
z
" style="fill:#337ab7;stroke:#ffffff;stroke-linejoin:miter;stroke-width:0.3;"/>
   </g>
   <g id="patch_46">
    <path clip-path="url(#pfe5a3320b4)" d="M 169.843575 120.547457 
L 173.339039 120.547457 
L 173.339039 120.547457 
L 169.843575 120.547457 
z
" style="fill:#337ab7;stroke:#ffffff;stroke-linejoin:miter;stroke-width:0.3;"/>
   </g>
   <g id="patch_47">
    <path clip-path="url(#pfe5a3320b4)" d="M 173.339039 120.547457 
L 176.834502 120.547457 
L 176.834502 120.547457 
L 173.339039 120.547457 
z
" style="fill:#337ab7;stroke:#ffffff;stroke-linejoin:miter;stroke-width:0.3;"/>
   </g>
   <g id="patch_48">
    <path clip-path="url(#pfe5a3320b4)" d="M 176.834502 120.547457 
L 180.329965 120.547457 
L 180.329965 120.547457 
L 176.834502 120.547457 
z
" style="fill:#337ab7;stroke:#ffffff;stroke-linejoin:miter;stroke-width:0.3;"/>
   </g>
   <g id="patch_49">
    <path clip-path="url(#pfe5a3320b4)" d="M 180.329965 120.547457 
L 183.825428 120.547457 
L 183.825428 120.547457 
L 180.329965 120.547457 
z
" style="fill:#337ab7;stroke:#ffffff;stroke-linejoin:miter;stroke-width:0.3;"/>
   </g>
   <g id="patch_50">
    <path clip-path="url(#pfe5a3320b4)" d="M 183.825428 120.547457 
L 187.320891 120.547457 
L 187.320891 120.547457 
L 183.825428 120.547457 
z
" style="fill:#337ab7;stroke:#ffffff;stroke-linejoin:miter;stroke-width:0.3;"/>
   </g>
   <g id="patch_51">
    <path clip-path="url(#pfe5a3320b4)" d="M 187.320891 120.547457 
L 190.816355 120.547457 
L 190.816355 120.547457 
L 187.320891 120.547457 
z
" style="fill:#337ab7;stroke:#ffffff;stroke-linejoin:miter;stroke-width:0.3;"/>
   </g>
   <g id="patch_52">
    <path clip-path="url(#pfe5a3320b4)" d="M 190.816355 120.547457 
L 194.311818 120.547457 
L 194.311818 120.527676 
L 190.816355 120.527676 
z
" style="fill:#337ab7;stroke:#ffffff;stroke-linejoin:miter;stroke-width:0.3;"/>
   </g>
   <g id="patch_53">
    <path d="M 10.8 120.547457 
L 10.8 10.8 
" style="fill:none;"/>
   </g>
   <g id="patch_54">
    <path d="M 203.050476 120.547457 
L 203.050476 10.8 
" style="fill:none;"/>
   </g>
   <g id="patch_55">
    <path d="M 10.8 120.547457 
L 203.050476 120.547457 
" style="fill:none;"/>
   </g>
   <g id="patch_56">
    <path d="M 10.8 10.8 
L 203.050476 10.8 
" style="fill:none;"/>
   </g>
  </g>
 </g>
 <defs>
  <clipPath id="pfe5a3320b4">
   <rect height="109.747457" width="192.250476" x="10.8" y="10.8"/>
  </clipPath>
 </defs>
</svg>
