<?xml version="1.0" encoding="utf-8" standalone="no"?>
<!DOCTYPE svg PUBLIC "-//W3C//DTD SVG 1.1//EN"
  "http://www.w3.org/Graphics/SVG/1.1/DTD/svg11.dtd">
<!-- Created with matplotlib (https://matplotlib.org/) -->
<svg height="162pt" version="1.1" viewBox="0 0 216 162" width="216pt" xmlns="http://www.w3.org/2000/svg" xmlns:xlink="http://www.w3.org/1999/xlink">
 <metadata>
  <rdf:RDF xmlns:cc="http://creativecommons.org/ns#" xmlns:dc="http://purl.org/dc/elements/1.1/" xmlns:rdf="http://www.w3.org/1999/02/22-rdf-syntax-ns#">
   <cc:Work>
    <dc:type rdf:resource="http://purl.org/dc/dcmitype/StillImage"/>
    <dc:date>2021-01-14T13:37:06.162488</dc:date>
    <dc:format>image/svg+xml</dc:format>
    <dc:creator>
     <cc:Agent>
      <dc:title>Matplotlib v3.3.3, https://matplotlib.org/</dc:title>
     </cc:Agent>
    </dc:creator>
   </cc:Work>
  </rdf:RDF>
 </metadata>
 <defs>
  <style type="text/css">*{stroke-linecap:butt;stroke-linejoin:round;}</style>
 </defs>
 <g id="figure_1">
  <g id="patch_1">
   <path d="M 0 162 
L 216 162 
L 216 0 
L 0 0 
z
" style="fill:#ffffff;"/>
  </g>
  <g id="axes_1">
   <g id="patch_2">
    <path d="M 10.8 116.502408 
L 205.2 116.502408 
L 205.2 10.8 
L 10.8 10.8 
z
" style="fill:#ffffff;"/>
   </g>
   <g id="matplotlib.axis_1">
    <g id="xtick_1">
     <g id="text_1">
      <!-- 0.0 -->
      <g style="fill:#262626;" transform="translate(17.167235 138.914506)rotate(-45)scale(0.08 -0.08)">
       <defs>
        <path d="M 4.15625 35.296875 
Q 4.15625 48 6.765625 55.734375 
Q 9.375 63.484375 14.515625 67.671875 
Q 19.671875 71.875 27.484375 71.875 
Q 33.25 71.875 37.59375 69.546875 
Q 41.9375 67.234375 44.765625 62.859375 
Q 47.609375 58.5 49.21875 52.21875 
Q 50.828125 45.953125 50.828125 35.296875 
Q 50.828125 22.703125 48.234375 14.96875 
Q 45.65625 7.234375 40.5 3 
Q 35.359375 -1.21875 27.484375 -1.21875 
Q 17.140625 -1.21875 11.234375 6.203125 
Q 4.15625 15.140625 4.15625 35.296875 
z
M 13.1875 35.296875 
Q 13.1875 17.671875 17.3125 11.828125 
Q 21.4375 6 27.484375 6 
Q 33.546875 6 37.671875 11.859375 
Q 41.796875 17.71875 41.796875 35.296875 
Q 41.796875 52.984375 37.671875 58.78125 
Q 33.546875 64.59375 27.390625 64.59375 
Q 21.34375 64.59375 17.71875 59.46875 
Q 13.1875 52.9375 13.1875 35.296875 
z
" id="ArialMT-48"/>
        <path d="M 9.078125 0 
L 9.078125 10.015625 
L 19.09375 10.015625 
L 19.09375 0 
z
" id="ArialMT-46"/>
       </defs>
       <use xlink:href="#ArialMT-48"/>
       <use x="55.615234" xlink:href="#ArialMT-46"/>
       <use x="83.398438" xlink:href="#ArialMT-48"/>
      </g>
     </g>
    </g>
    <g id="xtick_2">
     <g id="text_2">
      <!-- 0.5 -->
      <g style="fill:#262626;" transform="translate(59.527559 138.914506)rotate(-45)scale(0.08 -0.08)">
       <defs>
        <path d="M 4.15625 18.75 
L 13.375 19.53125 
Q 14.40625 12.796875 18.140625 9.390625 
Q 21.875 6 27.15625 6 
Q 33.5 6 37.890625 10.78125 
Q 42.28125 15.578125 42.28125 23.484375 
Q 42.28125 31 38.0625 35.34375 
Q 33.84375 39.703125 27 39.703125 
Q 22.75 39.703125 19.328125 37.765625 
Q 15.921875 35.84375 13.96875 32.765625 
L 5.71875 33.84375 
L 12.640625 70.609375 
L 48.25 70.609375 
L 48.25 62.203125 
L 19.671875 62.203125 
L 15.828125 42.96875 
Q 22.265625 47.46875 29.34375 47.46875 
Q 38.71875 47.46875 45.15625 40.96875 
Q 51.609375 34.46875 51.609375 24.265625 
Q 51.609375 14.546875 45.953125 7.46875 
Q 39.0625 -1.21875 27.15625 -1.21875 
Q 17.390625 -1.21875 11.203125 4.25 
Q 5.03125 9.71875 4.15625 18.75 
z
" id="ArialMT-53"/>
       </defs>
       <use xlink:href="#ArialMT-48"/>
       <use x="55.615234" xlink:href="#ArialMT-46"/>
       <use x="83.398438" xlink:href="#ArialMT-53"/>
      </g>
     </g>
    </g>
    <g id="xtick_3">
     <g id="text_3">
      <!-- 1.0 -->
      <g style="fill:#262626;" transform="translate(101.887884 138.914506)rotate(-45)scale(0.08 -0.08)">
       <defs>
        <path d="M 37.25 0 
L 28.46875 0 
L 28.46875 56 
Q 25.296875 52.984375 20.140625 49.953125 
Q 14.984375 46.921875 10.890625 45.40625 
L 10.890625 53.90625 
Q 18.265625 57.375 23.78125 62.296875 
Q 29.296875 67.234375 31.59375 71.875 
L 37.25 71.875 
z
" id="ArialMT-49"/>
       </defs>
       <use xlink:href="#ArialMT-49"/>
       <use x="55.615234" xlink:href="#ArialMT-46"/>
       <use x="83.398438" xlink:href="#ArialMT-48"/>
      </g>
     </g>
    </g>
    <g id="xtick_4">
     <g id="text_4">
      <!-- 1.5 -->
      <g style="fill:#262626;" transform="translate(144.248208 138.914506)rotate(-45)scale(0.08 -0.08)">
       <use xlink:href="#ArialMT-49"/>
       <use x="55.615234" xlink:href="#ArialMT-46"/>
       <use x="83.398438" xlink:href="#ArialMT-53"/>
      </g>
     </g>
    </g>
    <g id="xtick_5">
     <g id="text_5">
      <!-- 2.0 -->
      <g style="fill:#262626;" transform="translate(186.608532 138.914506)rotate(-45)scale(0.08 -0.08)">
       <defs>
        <path d="M 50.34375 8.453125 
L 50.34375 0 
L 3.03125 0 
Q 2.9375 3.171875 4.046875 6.109375 
Q 5.859375 10.9375 9.828125 15.625 
Q 13.8125 20.3125 21.34375 26.46875 
Q 33.015625 36.03125 37.109375 41.625 
Q 41.21875 47.21875 41.21875 52.203125 
Q 41.21875 57.421875 37.46875 61 
Q 33.734375 64.59375 27.734375 64.59375 
Q 21.390625 64.59375 17.578125 60.78125 
Q 13.765625 56.984375 13.71875 50.25 
L 4.6875 51.171875 
Q 5.609375 61.28125 11.65625 66.578125 
Q 17.71875 71.875 27.9375 71.875 
Q 38.234375 71.875 44.234375 66.15625 
Q 50.25 60.453125 50.25 52 
Q 50.25 47.703125 48.484375 43.546875 
Q 46.734375 39.40625 42.65625 34.8125 
Q 38.578125 30.21875 29.109375 22.21875 
Q 21.1875 15.578125 18.9375 13.203125 
Q 16.703125 10.84375 15.234375 8.453125 
z
" id="ArialMT-50"/>
       </defs>
       <use xlink:href="#ArialMT-50"/>
       <use x="55.615234" xlink:href="#ArialMT-46"/>
       <use x="83.398438" xlink:href="#ArialMT-48"/>
      </g>
     </g>
    </g>
    <g id="text_6">
     <!-- 1e9 -->
     <g style="fill:#262626;" transform="translate(188.517187 150.196618)scale(0.1 -0.1)">
      <defs>
       <path d="M 42.09375 16.703125 
L 51.171875 15.578125 
Q 49.03125 7.625 43.21875 3.21875 
Q 37.40625 -1.171875 28.375 -1.171875 
Q 17 -1.171875 10.328125 5.828125 
Q 3.65625 12.84375 3.65625 25.484375 
Q 3.65625 38.578125 10.390625 45.796875 
Q 17.140625 53.03125 27.875 53.03125 
Q 38.28125 53.03125 44.875 45.953125 
Q 51.46875 38.875 51.46875 26.03125 
Q 51.46875 25.25 51.421875 23.6875 
L 12.75 23.6875 
Q 13.234375 15.140625 17.578125 10.59375 
Q 21.921875 6.0625 28.421875 6.0625 
Q 33.25 6.0625 36.671875 8.59375 
Q 40.09375 11.140625 42.09375 16.703125 
z
M 13.234375 30.90625 
L 42.1875 30.90625 
Q 41.609375 37.453125 38.875 40.71875 
Q 34.671875 45.796875 27.984375 45.796875 
Q 21.921875 45.796875 17.796875 41.75 
Q 13.671875 37.703125 13.234375 30.90625 
z
" id="ArialMT-101"/>
       <path d="M 5.46875 16.546875 
L 13.921875 17.328125 
Q 14.984375 11.375 18.015625 8.6875 
Q 21.046875 6 25.78125 6 
Q 29.828125 6 32.875 7.859375 
Q 35.9375 9.71875 37.890625 12.8125 
Q 39.84375 15.921875 41.15625 21.1875 
Q 42.484375 26.46875 42.484375 31.9375 
Q 42.484375 32.515625 42.4375 33.6875 
Q 39.796875 29.5 35.234375 26.875 
Q 30.671875 24.265625 25.34375 24.265625 
Q 16.453125 24.265625 10.296875 30.703125 
Q 4.15625 37.15625 4.15625 47.703125 
Q 4.15625 58.59375 10.578125 65.234375 
Q 17 71.875 26.65625 71.875 
Q 33.640625 71.875 39.421875 68.109375 
Q 45.21875 64.359375 48.21875 57.390625 
Q 51.21875 50.4375 51.21875 37.25 
Q 51.21875 23.53125 48.234375 15.40625 
Q 45.265625 7.28125 39.375 3.03125 
Q 33.5 -1.21875 25.59375 -1.21875 
Q 17.1875 -1.21875 11.859375 3.4375 
Q 6.546875 8.109375 5.46875 16.546875 
z
M 41.453125 48.140625 
Q 41.453125 55.71875 37.421875 60.15625 
Q 33.40625 64.59375 27.734375 64.59375 
Q 21.875 64.59375 17.53125 59.8125 
Q 13.1875 55.03125 13.1875 47.40625 
Q 13.1875 40.578125 17.3125 36.296875 
Q 21.4375 32.03125 27.484375 32.03125 
Q 33.59375 32.03125 37.515625 36.296875 
Q 41.453125 40.578125 41.453125 48.140625 
z
" id="ArialMT-57"/>
      </defs>
      <use xlink:href="#ArialMT-49"/>
      <use x="55.615234" xlink:href="#ArialMT-101"/>
      <use x="111.230469" xlink:href="#ArialMT-57"/>
     </g>
    </g>
   </g>
   <g id="patch_3">
    <path clip-path="url(#pb112b50b86)" d="M 19.636364 116.502408 
L 23.170909 116.502408 
L 23.170909 15.833448 
L 19.636364 15.833448 
z
" style="fill:#337ab7;stroke:#ffffff;stroke-linejoin:miter;stroke-width:0.3;"/>
   </g>
   <g id="patch_4">
    <path clip-path="url(#pb112b50b86)" d="M 23.170909 116.502408 
L 26.705455 116.502408 
L 26.705455 115.965348 
L 23.170909 115.965348 
z
" style="fill:#337ab7;stroke:#ffffff;stroke-linejoin:miter;stroke-width:0.3;"/>
   </g>
   <g id="patch_5">
    <path clip-path="url(#pb112b50b86)" d="M 26.705455 116.502408 
L 30.24 116.502408 
L 30.24 116.399075 
L 26.705455 116.399075 
z
" style="fill:#337ab7;stroke:#ffffff;stroke-linejoin:miter;stroke-width:0.3;"/>
   </g>
   <g id="patch_6">
    <path clip-path="url(#pb112b50b86)" d="M 30.24 116.502408 
L 33.774545 116.502408 
L 33.774545 116.493403 
L 30.24 116.493403 
z
" style="fill:#337ab7;stroke:#ffffff;stroke-linejoin:miter;stroke-width:0.3;"/>
   </g>
   <g id="patch_7">
    <path clip-path="url(#pb112b50b86)" d="M 33.774545 116.502408 
L 37.309091 116.502408 
L 37.309091 116.479438 
L 33.774545 116.479438 
z
" style="fill:#337ab7;stroke:#ffffff;stroke-linejoin:miter;stroke-width:0.3;"/>
   </g>
   <g id="patch_8">
    <path clip-path="url(#pb112b50b86)" d="M 37.309091 116.502408 
L 40.843636 116.502408 
L 40.843636 116.483712 
L 37.309091 116.483712 
z
" style="fill:#337ab7;stroke:#ffffff;stroke-linejoin:miter;stroke-width:0.3;"/>
   </g>
   <g id="patch_9">
    <path clip-path="url(#pb112b50b86)" d="M 40.843636 116.502408 
L 44.378182 116.502408 
L 44.378182 116.502147 
L 40.843636 116.502147 
z
" style="fill:#337ab7;stroke:#ffffff;stroke-linejoin:miter;stroke-width:0.3;"/>
   </g>
   <g id="patch_10">
    <path clip-path="url(#pb112b50b86)" d="M 44.378182 116.502408 
L 47.912727 116.502408 
L 47.912727 116.502049 
L 44.378182 116.502049 
z
" style="fill:#337ab7;stroke:#ffffff;stroke-linejoin:miter;stroke-width:0.3;"/>
   </g>
   <g id="patch_11">
    <path clip-path="url(#pb112b50b86)" d="M 47.912727 116.502408 
L 51.447273 116.502408 
L 51.447273 116.502147 
L 47.912727 116.502147 
z
" style="fill:#337ab7;stroke:#ffffff;stroke-linejoin:miter;stroke-width:0.3;"/>
   </g>
   <g id="patch_12">
    <path clip-path="url(#pb112b50b86)" d="M 51.447273 116.502408 
L 54.981818 116.502408 
L 54.981818 116.502343 
L 51.447273 116.502343 
z
" style="fill:#337ab7;stroke:#ffffff;stroke-linejoin:miter;stroke-width:0.3;"/>
   </g>
   <g id="patch_13">
    <path clip-path="url(#pb112b50b86)" d="M 54.981818 116.502408 
L 58.516364 116.502408 
L 58.516364 116.502408 
L 54.981818 116.502408 
z
" style="fill:#337ab7;stroke:#ffffff;stroke-linejoin:miter;stroke-width:0.3;"/>
   </g>
   <g id="patch_14">
    <path clip-path="url(#pb112b50b86)" d="M 58.516364 116.502408 
L 62.050909 116.502408 
L 62.050909 116.502408 
L 58.516364 116.502408 
z
" style="fill:#337ab7;stroke:#ffffff;stroke-linejoin:miter;stroke-width:0.3;"/>
   </g>
   <g id="patch_15">
    <path clip-path="url(#pb112b50b86)" d="M 62.050909 116.502408 
L 65.585455 116.502408 
L 65.585455 116.502408 
L 62.050909 116.502408 
z
" style="fill:#337ab7;stroke:#ffffff;stroke-linejoin:miter;stroke-width:0.3;"/>
   </g>
   <g id="patch_16">
    <path clip-path="url(#pb112b50b86)" d="M 65.585455 116.502408 
L 69.12 116.502408 
L 69.12 116.502408 
L 65.585455 116.502408 
z
" style="fill:#337ab7;stroke:#ffffff;stroke-linejoin:miter;stroke-width:0.3;"/>
   </g>
   <g id="patch_17">
    <path clip-path="url(#pb112b50b86)" d="M 69.12 116.502408 
L 72.654545 116.502408 
L 72.654545 116.502114 
L 69.12 116.502114 
z
" style="fill:#337ab7;stroke:#ffffff;stroke-linejoin:miter;stroke-width:0.3;"/>
   </g>
   <g id="patch_18">
    <path clip-path="url(#pb112b50b86)" d="M 72.654545 116.502408 
L 76.189091 116.502408 
L 76.189091 116.502408 
L 72.654545 116.502408 
z
" style="fill:#337ab7;stroke:#ffffff;stroke-linejoin:miter;stroke-width:0.3;"/>
   </g>
   <g id="patch_19">
    <path clip-path="url(#pb112b50b86)" d="M 76.189091 116.502408 
L 79.723636 116.502408 
L 79.723636 116.500613 
L 76.189091 116.500613 
z
" style="fill:#337ab7;stroke:#ffffff;stroke-linejoin:miter;stroke-width:0.3;"/>
   </g>
   <g id="patch_20">
    <path clip-path="url(#pb112b50b86)" d="M 79.723636 116.502408 
L 83.258182 116.502408 
L 83.258182 116.502408 
L 79.723636 116.502408 
z
" style="fill:#337ab7;stroke:#ffffff;stroke-linejoin:miter;stroke-width:0.3;"/>
   </g>
   <g id="patch_21">
    <path clip-path="url(#pb112b50b86)" d="M 83.258182 116.502408 
L 86.792727 116.502408 
L 86.792727 116.502408 
L 83.258182 116.502408 
z
" style="fill:#337ab7;stroke:#ffffff;stroke-linejoin:miter;stroke-width:0.3;"/>
   </g>
   <g id="patch_22">
    <path clip-path="url(#pb112b50b86)" d="M 86.792727 116.502408 
L 90.327273 116.502408 
L 90.327273 116.502408 
L 86.792727 116.502408 
z
" style="fill:#337ab7;stroke:#ffffff;stroke-linejoin:miter;stroke-width:0.3;"/>
   </g>
   <g id="patch_23">
    <path clip-path="url(#pb112b50b86)" d="M 90.327273 116.502408 
L 93.861818 116.502408 
L 93.861818 116.502343 
L 90.327273 116.502343 
z
" style="fill:#337ab7;stroke:#ffffff;stroke-linejoin:miter;stroke-width:0.3;"/>
   </g>
   <g id="patch_24">
    <path clip-path="url(#pb112b50b86)" d="M 93.861818 116.502408 
L 97.396364 116.502408 
L 97.396364 116.502408 
L 93.861818 116.502408 
z
" style="fill:#337ab7;stroke:#ffffff;stroke-linejoin:miter;stroke-width:0.3;"/>
   </g>
   <g id="patch_25">
    <path clip-path="url(#pb112b50b86)" d="M 97.396364 116.502408 
L 100.930909 116.502408 
L 100.930909 116.502408 
L 97.396364 116.502408 
z
" style="fill:#337ab7;stroke:#ffffff;stroke-linejoin:miter;stroke-width:0.3;"/>
   </g>
   <g id="patch_26">
    <path clip-path="url(#pb112b50b86)" d="M 100.930909 116.502408 
L 104.465455 116.502408 
L 104.465455 116.502408 
L 100.930909 116.502408 
z
" style="fill:#337ab7;stroke:#ffffff;stroke-linejoin:miter;stroke-width:0.3;"/>
   </g>
   <g id="patch_27">
    <path clip-path="url(#pb112b50b86)" d="M 104.465455 116.502408 
L 108 116.502408 
L 108 116.502408 
L 104.465455 116.502408 
z
" style="fill:#337ab7;stroke:#ffffff;stroke-linejoin:miter;stroke-width:0.3;"/>
   </g>
   <g id="patch_28">
    <path clip-path="url(#pb112b50b86)" d="M 108 116.502408 
L 111.534545 116.502408 
L 111.534545 116.502408 
L 108 116.502408 
z
" style="fill:#337ab7;stroke:#ffffff;stroke-linejoin:miter;stroke-width:0.3;"/>
   </g>
   <g id="patch_29">
    <path clip-path="url(#pb112b50b86)" d="M 111.534545 116.502408 
L 115.069091 116.502408 
L 115.069091 116.502408 
L 111.534545 116.502408 
z
" style="fill:#337ab7;stroke:#ffffff;stroke-linejoin:miter;stroke-width:0.3;"/>
   </g>
   <g id="patch_30">
    <path clip-path="url(#pb112b50b86)" d="M 115.069091 116.502408 
L 118.603636 116.502408 
L 118.603636 116.502408 
L 115.069091 116.502408 
z
" style="fill:#337ab7;stroke:#ffffff;stroke-linejoin:miter;stroke-width:0.3;"/>
   </g>
   <g id="patch_31">
    <path clip-path="url(#pb112b50b86)" d="M 118.603636 116.502408 
L 122.138182 116.502408 
L 122.138182 116.502408 
L 118.603636 116.502408 
z
" style="fill:#337ab7;stroke:#ffffff;stroke-linejoin:miter;stroke-width:0.3;"/>
   </g>
   <g id="patch_32">
    <path clip-path="url(#pb112b50b86)" d="M 122.138182 116.502408 
L 125.672727 116.502408 
L 125.672727 116.502408 
L 122.138182 116.502408 
z
" style="fill:#337ab7;stroke:#ffffff;stroke-linejoin:miter;stroke-width:0.3;"/>
   </g>
   <g id="patch_33">
    <path clip-path="url(#pb112b50b86)" d="M 125.672727 116.502408 
L 129.207273 116.502408 
L 129.207273 116.502408 
L 125.672727 116.502408 
z
" style="fill:#337ab7;stroke:#ffffff;stroke-linejoin:miter;stroke-width:0.3;"/>
   </g>
   <g id="patch_34">
    <path clip-path="url(#pb112b50b86)" d="M 129.207273 116.502408 
L 132.741818 116.502408 
L 132.741818 116.502408 
L 129.207273 116.502408 
z
" style="fill:#337ab7;stroke:#ffffff;stroke-linejoin:miter;stroke-width:0.3;"/>
   </g>
   <g id="patch_35">
    <path clip-path="url(#pb112b50b86)" d="M 132.741818 116.502408 
L 136.276364 116.502408 
L 136.276364 116.502408 
L 132.741818 116.502408 
z
" style="fill:#337ab7;stroke:#ffffff;stroke-linejoin:miter;stroke-width:0.3;"/>
   </g>
   <g id="patch_36">
    <path clip-path="url(#pb112b50b86)" d="M 136.276364 116.502408 
L 139.810909 116.502408 
L 139.810909 116.502408 
L 136.276364 116.502408 
z
" style="fill:#337ab7;stroke:#ffffff;stroke-linejoin:miter;stroke-width:0.3;"/>
   </g>
   <g id="patch_37">
    <path clip-path="url(#pb112b50b86)" d="M 139.810909 116.502408 
L 143.345455 116.502408 
L 143.345455 116.502408 
L 139.810909 116.502408 
z
" style="fill:#337ab7;stroke:#ffffff;stroke-linejoin:miter;stroke-width:0.3;"/>
   </g>
   <g id="patch_38">
    <path clip-path="url(#pb112b50b86)" d="M 143.345455 116.502408 
L 146.88 116.502408 
L 146.88 116.502408 
L 143.345455 116.502408 
z
" style="fill:#337ab7;stroke:#ffffff;stroke-linejoin:miter;stroke-width:0.3;"/>
   </g>
   <g id="patch_39">
    <path clip-path="url(#pb112b50b86)" d="M 146.88 116.502408 
L 150.414545 116.502408 
L 150.414545 116.502408 
L 146.88 116.502408 
z
" style="fill:#337ab7;stroke:#ffffff;stroke-linejoin:miter;stroke-width:0.3;"/>
   </g>
   <g id="patch_40">
    <path clip-path="url(#pb112b50b86)" d="M 150.414545 116.502408 
L 153.949091 116.502408 
L 153.949091 116.502408 
L 150.414545 116.502408 
z
" style="fill:#337ab7;stroke:#ffffff;stroke-linejoin:miter;stroke-width:0.3;"/>
   </g>
   <g id="patch_41">
    <path clip-path="url(#pb112b50b86)" d="M 153.949091 116.502408 
L 157.483636 116.502408 
L 157.483636 116.502408 
L 153.949091 116.502408 
z
" style="fill:#337ab7;stroke:#ffffff;stroke-linejoin:miter;stroke-width:0.3;"/>
   </g>
   <g id="patch_42">
    <path clip-path="url(#pb112b50b86)" d="M 157.483636 116.502408 
L 161.018182 116.502408 
L 161.018182 116.502408 
L 157.483636 116.502408 
z
" style="fill:#337ab7;stroke:#ffffff;stroke-linejoin:miter;stroke-width:0.3;"/>
   </g>
   <g id="patch_43">
    <path clip-path="url(#pb112b50b86)" d="M 161.018182 116.502408 
L 164.552727 116.502408 
L 164.552727 116.502408 
L 161.018182 116.502408 
z
" style="fill:#337ab7;stroke:#ffffff;stroke-linejoin:miter;stroke-width:0.3;"/>
   </g>
   <g id="patch_44">
    <path clip-path="url(#pb112b50b86)" d="M 164.552727 116.502408 
L 168.087273 116.502408 
L 168.087273 116.50231 
L 164.552727 116.50231 
z
" style="fill:#337ab7;stroke:#ffffff;stroke-linejoin:miter;stroke-width:0.3;"/>
   </g>
   <g id="patch_45">
    <path clip-path="url(#pb112b50b86)" d="M 168.087273 116.502408 
L 171.621818 116.502408 
L 171.621818 116.502408 
L 168.087273 116.502408 
z
" style="fill:#337ab7;stroke:#ffffff;stroke-linejoin:miter;stroke-width:0.3;"/>
   </g>
   <g id="patch_46">
    <path clip-path="url(#pb112b50b86)" d="M 171.621818 116.502408 
L 175.156364 116.502408 
L 175.156364 116.502408 
L 171.621818 116.502408 
z
" style="fill:#337ab7;stroke:#ffffff;stroke-linejoin:miter;stroke-width:0.3;"/>
   </g>
   <g id="patch_47">
    <path clip-path="url(#pb112b50b86)" d="M 175.156364 116.502408 
L 178.690909 116.502408 
L 178.690909 116.502408 
L 175.156364 116.502408 
z
" style="fill:#337ab7;stroke:#ffffff;stroke-linejoin:miter;stroke-width:0.3;"/>
   </g>
   <g id="patch_48">
    <path clip-path="url(#pb112b50b86)" d="M 178.690909 116.502408 
L 182.225455 116.502408 
L 182.225455 116.502408 
L 178.690909 116.502408 
z
" style="fill:#337ab7;stroke:#ffffff;stroke-linejoin:miter;stroke-width:0.3;"/>
   </g>
   <g id="patch_49">
    <path clip-path="url(#pb112b50b86)" d="M 182.225455 116.502408 
L 185.76 116.502408 
L 185.76 116.502408 
L 182.225455 116.502408 
z
" style="fill:#337ab7;stroke:#ffffff;stroke-linejoin:miter;stroke-width:0.3;"/>
   </g>
   <g id="patch_50">
    <path clip-path="url(#pb112b50b86)" d="M 185.76 116.502408 
L 189.294545 116.502408 
L 189.294545 116.502408 
L 185.76 116.502408 
z
" style="fill:#337ab7;stroke:#ffffff;stroke-linejoin:miter;stroke-width:0.3;"/>
   </g>
   <g id="patch_51">
    <path clip-path="url(#pb112b50b86)" d="M 189.294545 116.502408 
L 192.829091 116.502408 
L 192.829091 116.502408 
L 189.294545 116.502408 
z
" style="fill:#337ab7;stroke:#ffffff;stroke-linejoin:miter;stroke-width:0.3;"/>
   </g>
   <g id="patch_52">
    <path clip-path="url(#pb112b50b86)" d="M 192.829091 116.502408 
L 196.363636 116.502408 
L 196.363636 116.502343 
L 192.829091 116.502343 
z
" style="fill:#337ab7;stroke:#ffffff;stroke-linejoin:miter;stroke-width:0.3;"/>
   </g>
   <g id="patch_53">
    <path d="M 10.8 116.502408 
L 10.8 10.8 
" style="fill:none;"/>
   </g>
   <g id="patch_54">
    <path d="M 205.2 116.502408 
L 205.2 10.8 
" style="fill:none;"/>
   </g>
   <g id="patch_55">
    <path d="M 10.8 116.502408 
L 205.2 116.502408 
" style="fill:none;"/>
   </g>
   <g id="patch_56">
    <path d="M 10.8 10.8 
L 205.2 10.8 
" style="fill:none;"/>
   </g>
  </g>
 </g>
 <defs>
  <clipPath id="pb112b50b86">
   <rect height="105.702408" width="194.4" x="10.8" y="10.8"/>
  </clipPath>
 </defs>
</svg>
