<?xml version="1.0" encoding="utf-8" standalone="no"?>
<!DOCTYPE svg PUBLIC "-//W3C//DTD SVG 1.1//EN"
  "http://www.w3.org/Graphics/SVG/1.1/DTD/svg11.dtd">
<!-- Created with matplotlib (https://matplotlib.org/) -->
<svg height="162pt" version="1.1" viewBox="0 0 216 162" width="216pt" xmlns="http://www.w3.org/2000/svg" xmlns:xlink="http://www.w3.org/1999/xlink">
 <metadata>
  <rdf:RDF xmlns:cc="http://creativecommons.org/ns#" xmlns:dc="http://purl.org/dc/elements/1.1/" xmlns:rdf="http://www.w3.org/1999/02/22-rdf-syntax-ns#">
   <cc:Work>
    <dc:type rdf:resource="http://purl.org/dc/dcmitype/StillImage"/>
    <dc:date>2021-01-14T13:37:31.619014</dc:date>
    <dc:format>image/svg+xml</dc:format>
    <dc:creator>
     <cc:Agent>
      <dc:title>Matplotlib v3.3.3, https://matplotlib.org/</dc:title>
     </cc:Agent>
    </dc:creator>
   </cc:Work>
  </rdf:RDF>
 </metadata>
 <defs>
  <style type="text/css">*{stroke-linecap:butt;stroke-linejoin:round;}</style>
 </defs>
 <g id="figure_1">
  <g id="patch_1">
   <path d="M 0 162 
L 216 162 
L 216 0 
L 0 0 
z
" style="fill:#ffffff;"/>
  </g>
  <g id="axes_1">
   <g id="patch_2">
    <path d="M 10.8 126.911418 
L 205.2 126.911418 
L 205.2 10.8 
L 10.8 10.8 
z
" style="fill:#ffffff;"/>
   </g>
   <g id="matplotlib.axis_1">
    <g id="xtick_1">
     <g id="text_1">
      <!-- 0 -->
      <g style="fill:#262626;" transform="translate(19.525878 144.606229)rotate(-45)scale(0.08 -0.08)">
       <defs>
        <path d="M 4.15625 35.296875 
Q 4.15625 48 6.765625 55.734375 
Q 9.375 63.484375 14.515625 67.671875 
Q 19.671875 71.875 27.484375 71.875 
Q 33.25 71.875 37.59375 69.546875 
Q 41.9375 67.234375 44.765625 62.859375 
Q 47.609375 58.5 49.21875 52.21875 
Q 50.828125 45.953125 50.828125 35.296875 
Q 50.828125 22.703125 48.234375 14.96875 
Q 45.65625 7.234375 40.5 3 
Q 35.359375 -1.21875 27.484375 -1.21875 
Q 17.140625 -1.21875 11.234375 6.203125 
Q 4.15625 15.140625 4.15625 35.296875 
z
M 13.1875 35.296875 
Q 13.1875 17.671875 17.3125 11.828125 
Q 21.4375 6 27.484375 6 
Q 33.546875 6 37.671875 11.859375 
Q 41.796875 17.71875 41.796875 35.296875 
Q 41.796875 52.984375 37.671875 58.78125 
Q 33.546875 64.59375 27.390625 64.59375 
Q 21.34375 64.59375 17.71875 59.46875 
Q 13.1875 52.9375 13.1875 35.296875 
z
" id="ArialMT-48"/>
       </defs>
       <use xlink:href="#ArialMT-48"/>
      </g>
     </g>
    </g>
    <g id="xtick_2">
     <g id="text_2">
      <!-- 50 -->
      <g style="fill:#262626;" transform="translate(68.446514 147.751971)rotate(-45)scale(0.08 -0.08)">
       <defs>
        <path d="M 4.15625 18.75 
L 13.375 19.53125 
Q 14.40625 12.796875 18.140625 9.390625 
Q 21.875 6 27.15625 6 
Q 33.5 6 37.890625 10.78125 
Q 42.28125 15.578125 42.28125 23.484375 
Q 42.28125 31 38.0625 35.34375 
Q 33.84375 39.703125 27 39.703125 
Q 22.75 39.703125 19.328125 37.765625 
Q 15.921875 35.84375 13.96875 32.765625 
L 5.71875 33.84375 
L 12.640625 70.609375 
L 48.25 70.609375 
L 48.25 62.203125 
L 19.671875 62.203125 
L 15.828125 42.96875 
Q 22.265625 47.46875 29.34375 47.46875 
Q 38.71875 47.46875 45.15625 40.96875 
Q 51.609375 34.46875 51.609375 24.265625 
Q 51.609375 14.546875 45.953125 7.46875 
Q 39.0625 -1.21875 27.15625 -1.21875 
Q 17.390625 -1.21875 11.203125 4.25 
Q 5.03125 9.71875 4.15625 18.75 
z
" id="ArialMT-53"/>
       </defs>
       <use xlink:href="#ArialMT-53"/>
       <use x="55.615234" xlink:href="#ArialMT-48"/>
      </g>
     </g>
    </g>
    <g id="xtick_3">
     <g id="text_3">
      <!-- 100 -->
      <g style="fill:#262626;" transform="translate(117.36715 150.897712)rotate(-45)scale(0.08 -0.08)">
       <defs>
        <path d="M 37.25 0 
L 28.46875 0 
L 28.46875 56 
Q 25.296875 52.984375 20.140625 49.953125 
Q 14.984375 46.921875 10.890625 45.40625 
L 10.890625 53.90625 
Q 18.265625 57.375 23.78125 62.296875 
Q 29.296875 67.234375 31.59375 71.875 
L 37.25 71.875 
z
" id="ArialMT-49"/>
       </defs>
       <use xlink:href="#ArialMT-49"/>
       <use x="55.615234" xlink:href="#ArialMT-48"/>
       <use x="111.230469" xlink:href="#ArialMT-48"/>
      </g>
     </g>
    </g>
    <g id="xtick_4">
     <g id="text_4">
      <!-- 150 -->
      <g style="fill:#262626;" transform="translate(167.860656 150.897712)rotate(-45)scale(0.08 -0.08)">
       <use xlink:href="#ArialMT-49"/>
       <use x="55.615234" xlink:href="#ArialMT-53"/>
       <use x="111.230469" xlink:href="#ArialMT-48"/>
      </g>
     </g>
    </g>
   </g>
   <g id="patch_3">
    <path clip-path="url(#p8f2c171525)" d="M 19.636364 126.911418 
L 23.170909 126.911418 
L 23.170909 16.329115 
L 19.636364 16.329115 
z
" style="fill:#337ab7;stroke:#ffffff;stroke-linejoin:miter;stroke-width:0.3;"/>
   </g>
   <g id="patch_4">
    <path clip-path="url(#p8f2c171525)" d="M 23.170909 126.911418 
L 26.705455 126.911418 
L 26.705455 126.579631 
L 23.170909 126.579631 
z
" style="fill:#337ab7;stroke:#ffffff;stroke-linejoin:miter;stroke-width:0.3;"/>
   </g>
   <g id="patch_5">
    <path clip-path="url(#p8f2c171525)" d="M 26.705455 126.911418 
L 30.24 126.911418 
L 30.24 126.862012 
L 26.705455 126.862012 
z
" style="fill:#337ab7;stroke:#ffffff;stroke-linejoin:miter;stroke-width:0.3;"/>
   </g>
   <g id="patch_6">
    <path clip-path="url(#p8f2c171525)" d="M 30.24 126.911418 
L 33.774545 126.911418 
L 33.774545 126.902624 
L 30.24 126.902624 
z
" style="fill:#337ab7;stroke:#ffffff;stroke-linejoin:miter;stroke-width:0.3;"/>
   </g>
   <g id="patch_7">
    <path clip-path="url(#p8f2c171525)" d="M 33.774545 126.911418 
L 37.309091 126.911418 
L 37.309091 126.903825 
L 33.774545 126.903825 
z
" style="fill:#337ab7;stroke:#ffffff;stroke-linejoin:miter;stroke-width:0.3;"/>
   </g>
   <g id="patch_8">
    <path clip-path="url(#p8f2c171525)" d="M 37.309091 126.911418 
L 40.843636 126.911418 
L 40.843636 126.909299 
L 37.309091 126.909299 
z
" style="fill:#337ab7;stroke:#ffffff;stroke-linejoin:miter;stroke-width:0.3;"/>
   </g>
   <g id="patch_9">
    <path clip-path="url(#p8f2c171525)" d="M 40.843636 126.911418 
L 44.378182 126.911418 
L 44.378182 126.908345 
L 40.843636 126.908345 
z
" style="fill:#337ab7;stroke:#ffffff;stroke-linejoin:miter;stroke-width:0.3;"/>
   </g>
   <g id="patch_10">
    <path clip-path="url(#p8f2c171525)" d="M 44.378182 126.911418 
L 47.912727 126.911418 
L 47.912727 126.9105 
L 44.378182 126.9105 
z
" style="fill:#337ab7;stroke:#ffffff;stroke-linejoin:miter;stroke-width:0.3;"/>
   </g>
   <g id="patch_11">
    <path clip-path="url(#p8f2c171525)" d="M 47.912727 126.911418 
L 51.447273 126.911418 
L 51.447273 126.9105 
L 47.912727 126.9105 
z
" style="fill:#337ab7;stroke:#ffffff;stroke-linejoin:miter;stroke-width:0.3;"/>
   </g>
   <g id="patch_12">
    <path clip-path="url(#p8f2c171525)" d="M 51.447273 126.911418 
L 54.981818 126.911418 
L 54.981818 126.911029 
L 51.447273 126.911029 
z
" style="fill:#337ab7;stroke:#ffffff;stroke-linejoin:miter;stroke-width:0.3;"/>
   </g>
   <g id="patch_13">
    <path clip-path="url(#p8f2c171525)" d="M 54.981818 126.911418 
L 58.516364 126.911418 
L 58.516364 126.910959 
L 54.981818 126.910959 
z
" style="fill:#337ab7;stroke:#ffffff;stroke-linejoin:miter;stroke-width:0.3;"/>
   </g>
   <g id="patch_14">
    <path clip-path="url(#p8f2c171525)" d="M 58.516364 126.911418 
L 62.050909 126.911418 
L 62.050909 126.911029 
L 58.516364 126.911029 
z
" style="fill:#337ab7;stroke:#ffffff;stroke-linejoin:miter;stroke-width:0.3;"/>
   </g>
   <g id="patch_15">
    <path clip-path="url(#p8f2c171525)" d="M 62.050909 126.911418 
L 65.585455 126.911418 
L 65.585455 126.911065 
L 62.050909 126.911065 
z
" style="fill:#337ab7;stroke:#ffffff;stroke-linejoin:miter;stroke-width:0.3;"/>
   </g>
   <g id="patch_16">
    <path clip-path="url(#p8f2c171525)" d="M 65.585455 126.911418 
L 69.12 126.911418 
L 69.12 126.9111 
L 65.585455 126.9111 
z
" style="fill:#337ab7;stroke:#ffffff;stroke-linejoin:miter;stroke-width:0.3;"/>
   </g>
   <g id="patch_17">
    <path clip-path="url(#p8f2c171525)" d="M 69.12 126.911418 
L 72.654545 126.911418 
L 72.654545 126.910888 
L 69.12 126.910888 
z
" style="fill:#337ab7;stroke:#ffffff;stroke-linejoin:miter;stroke-width:0.3;"/>
   </g>
   <g id="patch_18">
    <path clip-path="url(#p8f2c171525)" d="M 72.654545 126.911418 
L 76.189091 126.911418 
L 76.189091 126.911312 
L 72.654545 126.911312 
z
" style="fill:#337ab7;stroke:#ffffff;stroke-linejoin:miter;stroke-width:0.3;"/>
   </g>
   <g id="patch_19">
    <path clip-path="url(#p8f2c171525)" d="M 76.189091 126.911418 
L 79.723636 126.911418 
L 79.723636 126.911135 
L 76.189091 126.911135 
z
" style="fill:#337ab7;stroke:#ffffff;stroke-linejoin:miter;stroke-width:0.3;"/>
   </g>
   <g id="patch_20">
    <path clip-path="url(#p8f2c171525)" d="M 79.723636 126.911418 
L 83.258182 126.911418 
L 83.258182 126.911312 
L 79.723636 126.911312 
z
" style="fill:#337ab7;stroke:#ffffff;stroke-linejoin:miter;stroke-width:0.3;"/>
   </g>
   <g id="patch_21">
    <path clip-path="url(#p8f2c171525)" d="M 83.258182 126.911418 
L 86.792727 126.911418 
L 86.792727 126.911277 
L 83.258182 126.911277 
z
" style="fill:#337ab7;stroke:#ffffff;stroke-linejoin:miter;stroke-width:0.3;"/>
   </g>
   <g id="patch_22">
    <path clip-path="url(#p8f2c171525)" d="M 86.792727 126.911418 
L 90.327273 126.911418 
L 90.327273 126.911382 
L 86.792727 126.911382 
z
" style="fill:#337ab7;stroke:#ffffff;stroke-linejoin:miter;stroke-width:0.3;"/>
   </g>
   <g id="patch_23">
    <path clip-path="url(#p8f2c171525)" d="M 90.327273 126.911418 
L 93.861818 126.911418 
L 93.861818 126.911418 
L 90.327273 126.911418 
z
" style="fill:#337ab7;stroke:#ffffff;stroke-linejoin:miter;stroke-width:0.3;"/>
   </g>
   <g id="patch_24">
    <path clip-path="url(#p8f2c171525)" d="M 93.861818 126.911418 
L 97.396364 126.911418 
L 97.396364 126.911382 
L 93.861818 126.911382 
z
" style="fill:#337ab7;stroke:#ffffff;stroke-linejoin:miter;stroke-width:0.3;"/>
   </g>
   <g id="patch_25">
    <path clip-path="url(#p8f2c171525)" d="M 97.396364 126.911418 
L 100.930909 126.911418 
L 100.930909 126.911382 
L 97.396364 126.911382 
z
" style="fill:#337ab7;stroke:#ffffff;stroke-linejoin:miter;stroke-width:0.3;"/>
   </g>
   <g id="patch_26">
    <path clip-path="url(#p8f2c171525)" d="M 100.930909 126.911418 
L 104.465455 126.911418 
L 104.465455 126.911347 
L 100.930909 126.911347 
z
" style="fill:#337ab7;stroke:#ffffff;stroke-linejoin:miter;stroke-width:0.3;"/>
   </g>
   <g id="patch_27">
    <path clip-path="url(#p8f2c171525)" d="M 104.465455 126.911418 
L 108 126.911418 
L 108 126.908169 
L 104.465455 126.908169 
z
" style="fill:#337ab7;stroke:#ffffff;stroke-linejoin:miter;stroke-width:0.3;"/>
   </g>
   <g id="patch_28">
    <path clip-path="url(#p8f2c171525)" d="M 108 126.911418 
L 111.534545 126.911418 
L 111.534545 126.911347 
L 108 126.911347 
z
" style="fill:#337ab7;stroke:#ffffff;stroke-linejoin:miter;stroke-width:0.3;"/>
   </g>
   <g id="patch_29">
    <path clip-path="url(#p8f2c171525)" d="M 111.534545 126.911418 
L 115.069091 126.911418 
L 115.069091 126.911312 
L 111.534545 126.911312 
z
" style="fill:#337ab7;stroke:#ffffff;stroke-linejoin:miter;stroke-width:0.3;"/>
   </g>
   <g id="patch_30">
    <path clip-path="url(#p8f2c171525)" d="M 115.069091 126.911418 
L 118.603636 126.911418 
L 118.603636 126.911418 
L 115.069091 126.911418 
z
" style="fill:#337ab7;stroke:#ffffff;stroke-linejoin:miter;stroke-width:0.3;"/>
   </g>
   <g id="patch_31">
    <path clip-path="url(#p8f2c171525)" d="M 118.603636 126.911418 
L 122.138182 126.911418 
L 122.138182 126.911277 
L 118.603636 126.911277 
z
" style="fill:#337ab7;stroke:#ffffff;stroke-linejoin:miter;stroke-width:0.3;"/>
   </g>
   <g id="patch_32">
    <path clip-path="url(#p8f2c171525)" d="M 122.138182 126.911418 
L 125.672727 126.911418 
L 125.672727 126.911382 
L 122.138182 126.911382 
z
" style="fill:#337ab7;stroke:#ffffff;stroke-linejoin:miter;stroke-width:0.3;"/>
   </g>
   <g id="patch_33">
    <path clip-path="url(#p8f2c171525)" d="M 125.672727 126.911418 
L 129.207273 126.911418 
L 129.207273 126.911418 
L 125.672727 126.911418 
z
" style="fill:#337ab7;stroke:#ffffff;stroke-linejoin:miter;stroke-width:0.3;"/>
   </g>
   <g id="patch_34">
    <path clip-path="url(#p8f2c171525)" d="M 129.207273 126.911418 
L 132.741818 126.911418 
L 132.741818 126.911382 
L 129.207273 126.911382 
z
" style="fill:#337ab7;stroke:#ffffff;stroke-linejoin:miter;stroke-width:0.3;"/>
   </g>
   <g id="patch_35">
    <path clip-path="url(#p8f2c171525)" d="M 132.741818 126.911418 
L 136.276364 126.911418 
L 136.276364 126.911382 
L 132.741818 126.911382 
z
" style="fill:#337ab7;stroke:#ffffff;stroke-linejoin:miter;stroke-width:0.3;"/>
   </g>
   <g id="patch_36">
    <path clip-path="url(#p8f2c171525)" d="M 136.276364 126.911418 
L 139.810909 126.911418 
L 139.810909 126.911382 
L 136.276364 126.911382 
z
" style="fill:#337ab7;stroke:#ffffff;stroke-linejoin:miter;stroke-width:0.3;"/>
   </g>
   <g id="patch_37">
    <path clip-path="url(#p8f2c171525)" d="M 139.810909 126.911418 
L 143.345455 126.911418 
L 143.345455 126.911418 
L 139.810909 126.911418 
z
" style="fill:#337ab7;stroke:#ffffff;stroke-linejoin:miter;stroke-width:0.3;"/>
   </g>
   <g id="patch_38">
    <path clip-path="url(#p8f2c171525)" d="M 143.345455 126.911418 
L 146.88 126.911418 
L 146.88 126.911418 
L 143.345455 126.911418 
z
" style="fill:#337ab7;stroke:#ffffff;stroke-linejoin:miter;stroke-width:0.3;"/>
   </g>
   <g id="patch_39">
    <path clip-path="url(#p8f2c171525)" d="M 146.88 126.911418 
L 150.414545 126.911418 
L 150.414545 126.911418 
L 146.88 126.911418 
z
" style="fill:#337ab7;stroke:#ffffff;stroke-linejoin:miter;stroke-width:0.3;"/>
   </g>
   <g id="patch_40">
    <path clip-path="url(#p8f2c171525)" d="M 150.414545 126.911418 
L 153.949091 126.911418 
L 153.949091 126.911418 
L 150.414545 126.911418 
z
" style="fill:#337ab7;stroke:#ffffff;stroke-linejoin:miter;stroke-width:0.3;"/>
   </g>
   <g id="patch_41">
    <path clip-path="url(#p8f2c171525)" d="M 153.949091 126.911418 
L 157.483636 126.911418 
L 157.483636 126.911382 
L 153.949091 126.911382 
z
" style="fill:#337ab7;stroke:#ffffff;stroke-linejoin:miter;stroke-width:0.3;"/>
   </g>
   <g id="patch_42">
    <path clip-path="url(#p8f2c171525)" d="M 157.483636 126.911418 
L 161.018182 126.911418 
L 161.018182 126.911418 
L 157.483636 126.911418 
z
" style="fill:#337ab7;stroke:#ffffff;stroke-linejoin:miter;stroke-width:0.3;"/>
   </g>
   <g id="patch_43">
    <path clip-path="url(#p8f2c171525)" d="M 161.018182 126.911418 
L 164.552727 126.911418 
L 164.552727 126.911347 
L 161.018182 126.911347 
z
" style="fill:#337ab7;stroke:#ffffff;stroke-linejoin:miter;stroke-width:0.3;"/>
   </g>
   <g id="patch_44">
    <path clip-path="url(#p8f2c171525)" d="M 164.552727 126.911418 
L 168.087273 126.911418 
L 168.087273 126.911418 
L 164.552727 126.911418 
z
" style="fill:#337ab7;stroke:#ffffff;stroke-linejoin:miter;stroke-width:0.3;"/>
   </g>
   <g id="patch_45">
    <path clip-path="url(#p8f2c171525)" d="M 168.087273 126.911418 
L 171.621818 126.911418 
L 171.621818 126.911418 
L 168.087273 126.911418 
z
" style="fill:#337ab7;stroke:#ffffff;stroke-linejoin:miter;stroke-width:0.3;"/>
   </g>
   <g id="patch_46">
    <path clip-path="url(#p8f2c171525)" d="M 171.621818 126.911418 
L 175.156364 126.911418 
L 175.156364 126.911418 
L 171.621818 126.911418 
z
" style="fill:#337ab7;stroke:#ffffff;stroke-linejoin:miter;stroke-width:0.3;"/>
   </g>
   <g id="patch_47">
    <path clip-path="url(#p8f2c171525)" d="M 175.156364 126.911418 
L 178.690909 126.911418 
L 178.690909 126.911418 
L 175.156364 126.911418 
z
" style="fill:#337ab7;stroke:#ffffff;stroke-linejoin:miter;stroke-width:0.3;"/>
   </g>
   <g id="patch_48">
    <path clip-path="url(#p8f2c171525)" d="M 178.690909 126.911418 
L 182.225455 126.911418 
L 182.225455 126.911382 
L 178.690909 126.911382 
z
" style="fill:#337ab7;stroke:#ffffff;stroke-linejoin:miter;stroke-width:0.3;"/>
   </g>
   <g id="patch_49">
    <path clip-path="url(#p8f2c171525)" d="M 182.225455 126.911418 
L 185.76 126.911418 
L 185.76 126.911418 
L 182.225455 126.911418 
z
" style="fill:#337ab7;stroke:#ffffff;stroke-linejoin:miter;stroke-width:0.3;"/>
   </g>
   <g id="patch_50">
    <path clip-path="url(#p8f2c171525)" d="M 185.76 126.911418 
L 189.294545 126.911418 
L 189.294545 126.911418 
L 185.76 126.911418 
z
" style="fill:#337ab7;stroke:#ffffff;stroke-linejoin:miter;stroke-width:0.3;"/>
   </g>
   <g id="patch_51">
    <path clip-path="url(#p8f2c171525)" d="M 189.294545 126.911418 
L 192.829091 126.911418 
L 192.829091 126.911418 
L 189.294545 126.911418 
z
" style="fill:#337ab7;stroke:#ffffff;stroke-linejoin:miter;stroke-width:0.3;"/>
   </g>
   <g id="patch_52">
    <path clip-path="url(#p8f2c171525)" d="M 192.829091 126.911418 
L 196.363636 126.911418 
L 196.363636 126.911382 
L 192.829091 126.911382 
z
" style="fill:#337ab7;stroke:#ffffff;stroke-linejoin:miter;stroke-width:0.3;"/>
   </g>
   <g id="patch_53">
    <path d="M 10.8 126.911418 
L 10.8 10.8 
" style="fill:none;"/>
   </g>
   <g id="patch_54">
    <path d="M 205.2 126.911418 
L 205.2 10.8 
" style="fill:none;"/>
   </g>
   <g id="patch_55">
    <path d="M 10.8 126.911418 
L 205.2 126.911418 
" style="fill:none;"/>
   </g>
   <g id="patch_56">
    <path d="M 10.8 10.8 
L 205.2 10.8 
" style="fill:none;"/>
   </g>
  </g>
 </g>
 <defs>
  <clipPath id="p8f2c171525">
   <rect height="116.111418" width="194.4" x="10.8" y="10.8"/>
  </clipPath>
 </defs>
</svg>
