<?xml version="1.0" encoding="utf-8" standalone="no"?>
<!DOCTYPE svg PUBLIC "-//W3C//DTD SVG 1.1//EN"
  "http://www.w3.org/Graphics/SVG/1.1/DTD/svg11.dtd">
<!-- Created with matplotlib (https://matplotlib.org/) -->
<svg height="162pt" version="1.1" viewBox="0 0 216 162" width="216pt" xmlns="http://www.w3.org/2000/svg" xmlns:xlink="http://www.w3.org/1999/xlink">
 <metadata>
  <rdf:RDF xmlns:cc="http://creativecommons.org/ns#" xmlns:dc="http://purl.org/dc/elements/1.1/" xmlns:rdf="http://www.w3.org/1999/02/22-rdf-syntax-ns#">
   <cc:Work>
    <dc:type rdf:resource="http://purl.org/dc/dcmitype/StillImage"/>
    <dc:date>2021-01-14T13:37:39.784566</dc:date>
    <dc:format>image/svg+xml</dc:format>
    <dc:creator>
     <cc:Agent>
      <dc:title>Matplotlib v3.3.3, https://matplotlib.org/</dc:title>
     </cc:Agent>
    </dc:creator>
   </cc:Work>
  </rdf:RDF>
 </metadata>
 <defs>
  <style type="text/css">*{stroke-linecap:butt;stroke-linejoin:round;}</style>
 </defs>
 <g id="figure_1">
  <g id="patch_1">
   <path d="M 0 162 
L 216 162 
L 216 0 
L 0 0 
z
" style="fill:#ffffff;"/>
  </g>
  <g id="axes_1">
   <g id="patch_2">
    <path d="M 10.8 126.911418 
L 205.2 126.911418 
L 205.2 10.8 
L 10.8 10.8 
z
" style="fill:#ffffff;"/>
   </g>
   <g id="matplotlib.axis_1">
    <g id="xtick_1">
     <g id="text_1">
      <!-- −20 -->
      <g style="fill:#262626;" transform="translate(19.678781 151.055927)rotate(-45)scale(0.08 -0.08)">
       <defs>
        <path d="M 52.828125 31.203125 
L 5.5625 31.203125 
L 5.5625 39.40625 
L 52.828125 39.40625 
z
" id="ArialMT-8722"/>
        <path d="M 50.34375 8.453125 
L 50.34375 0 
L 3.03125 0 
Q 2.9375 3.171875 4.046875 6.109375 
Q 5.859375 10.9375 9.828125 15.625 
Q 13.8125 20.3125 21.34375 26.46875 
Q 33.015625 36.03125 37.109375 41.625 
Q 41.21875 47.21875 41.21875 52.203125 
Q 41.21875 57.421875 37.46875 61 
Q 33.734375 64.59375 27.734375 64.59375 
Q 21.390625 64.59375 17.578125 60.78125 
Q 13.765625 56.984375 13.71875 50.25 
L 4.6875 51.171875 
Q 5.609375 61.28125 11.65625 66.578125 
Q 17.71875 71.875 27.9375 71.875 
Q 38.234375 71.875 44.234375 66.15625 
Q 50.25 60.453125 50.25 52 
Q 50.25 47.703125 48.484375 43.546875 
Q 46.734375 39.40625 42.65625 34.8125 
Q 38.578125 30.21875 29.109375 22.21875 
Q 21.1875 15.578125 18.9375 13.203125 
Q 16.703125 10.84375 15.234375 8.453125 
z
" id="ArialMT-50"/>
        <path d="M 4.15625 35.296875 
Q 4.15625 48 6.765625 55.734375 
Q 9.375 63.484375 14.515625 67.671875 
Q 19.671875 71.875 27.484375 71.875 
Q 33.25 71.875 37.59375 69.546875 
Q 41.9375 67.234375 44.765625 62.859375 
Q 47.609375 58.5 49.21875 52.21875 
Q 50.828125 45.953125 50.828125 35.296875 
Q 50.828125 22.703125 48.234375 14.96875 
Q 45.65625 7.234375 40.5 3 
Q 35.359375 -1.21875 27.484375 -1.21875 
Q 17.140625 -1.21875 11.234375 6.203125 
Q 4.15625 15.140625 4.15625 35.296875 
z
M 13.1875 35.296875 
Q 13.1875 17.671875 17.3125 11.828125 
Q 21.4375 6 27.484375 6 
Q 33.546875 6 37.671875 11.859375 
Q 41.796875 17.71875 41.796875 35.296875 
Q 41.796875 52.984375 37.671875 58.78125 
Q 33.546875 64.59375 27.390625 64.59375 
Q 21.34375 64.59375 17.71875 59.46875 
Q 13.1875 52.9375 13.1875 35.296875 
z
" id="ArialMT-48"/>
       </defs>
       <use xlink:href="#ArialMT-8722"/>
       <use x="58.398438" xlink:href="#ArialMT-50"/>
       <use x="114.013672" xlink:href="#ArialMT-48"/>
      </g>
     </g>
    </g>
    <g id="xtick_2">
     <g id="text_2">
      <!-- 0 -->
      <g style="fill:#262626;" transform="translate(71.678102 144.606229)rotate(-45)scale(0.08 -0.08)">
       <use xlink:href="#ArialMT-48"/>
      </g>
     </g>
    </g>
    <g id="xtick_3">
     <g id="text_3">
      <!-- 20 -->
      <g style="fill:#262626;" transform="translate(118.879704 147.751971)rotate(-45)scale(0.08 -0.08)">
       <use xlink:href="#ArialMT-50"/>
       <use x="55.615234" xlink:href="#ArialMT-48"/>
      </g>
     </g>
    </g>
    <g id="xtick_4">
     <g id="text_4">
      <!-- 40 -->
      <g style="fill:#262626;" transform="translate(167.654177 147.751971)rotate(-45)scale(0.08 -0.08)">
       <defs>
        <path d="M 32.328125 0 
L 32.328125 17.140625 
L 1.265625 17.140625 
L 1.265625 25.203125 
L 33.9375 71.578125 
L 41.109375 71.578125 
L 41.109375 25.203125 
L 50.78125 25.203125 
L 50.78125 17.140625 
L 41.109375 17.140625 
L 41.109375 0 
z
M 32.328125 25.203125 
L 32.328125 57.46875 
L 9.90625 25.203125 
z
" id="ArialMT-52"/>
       </defs>
       <use xlink:href="#ArialMT-52"/>
       <use x="55.615234" xlink:href="#ArialMT-48"/>
      </g>
     </g>
    </g>
   </g>
   <g id="patch_3">
    <path clip-path="url(#pe308fbdbde)" d="M 19.636364 126.911418 
L 23.170909 126.911418 
L 23.170909 125.841463 
L 19.636364 125.841463 
z
" style="fill:#337ab7;stroke:#ffffff;stroke-linejoin:miter;stroke-width:0.3;"/>
   </g>
   <g id="patch_4">
    <path clip-path="url(#pe308fbdbde)" d="M 23.170909 126.911418 
L 26.705455 126.911418 
L 26.705455 126.911418 
L 23.170909 126.911418 
z
" style="fill:#337ab7;stroke:#ffffff;stroke-linejoin:miter;stroke-width:0.3;"/>
   </g>
   <g id="patch_5">
    <path clip-path="url(#pe308fbdbde)" d="M 26.705455 126.911418 
L 30.24 126.911418 
L 30.24 126.911418 
L 26.705455 126.911418 
z
" style="fill:#337ab7;stroke:#ffffff;stroke-linejoin:miter;stroke-width:0.3;"/>
   </g>
   <g id="patch_6">
    <path clip-path="url(#pe308fbdbde)" d="M 30.24 126.911418 
L 33.774545 126.911418 
L 33.774545 126.911418 
L 30.24 126.911418 
z
" style="fill:#337ab7;stroke:#ffffff;stroke-linejoin:miter;stroke-width:0.3;"/>
   </g>
   <g id="patch_7">
    <path clip-path="url(#pe308fbdbde)" d="M 33.774545 126.911418 
L 37.309091 126.911418 
L 37.309091 126.911418 
L 33.774545 126.911418 
z
" style="fill:#337ab7;stroke:#ffffff;stroke-linejoin:miter;stroke-width:0.3;"/>
   </g>
   <g id="patch_8">
    <path clip-path="url(#pe308fbdbde)" d="M 37.309091 126.911418 
L 40.843636 126.911418 
L 40.843636 126.911418 
L 37.309091 126.911418 
z
" style="fill:#337ab7;stroke:#ffffff;stroke-linejoin:miter;stroke-width:0.3;"/>
   </g>
   <g id="patch_9">
    <path clip-path="url(#pe308fbdbde)" d="M 40.843636 126.911418 
L 44.378182 126.911418 
L 44.378182 126.911418 
L 40.843636 126.911418 
z
" style="fill:#337ab7;stroke:#ffffff;stroke-linejoin:miter;stroke-width:0.3;"/>
   </g>
   <g id="patch_10">
    <path clip-path="url(#pe308fbdbde)" d="M 44.378182 126.911418 
L 47.912727 126.911418 
L 47.912727 126.911418 
L 44.378182 126.911418 
z
" style="fill:#337ab7;stroke:#ffffff;stroke-linejoin:miter;stroke-width:0.3;"/>
   </g>
   <g id="patch_11">
    <path clip-path="url(#pe308fbdbde)" d="M 47.912727 126.911418 
L 51.447273 126.911418 
L 51.447273 126.911418 
L 47.912727 126.911418 
z
" style="fill:#337ab7;stroke:#ffffff;stroke-linejoin:miter;stroke-width:0.3;"/>
   </g>
   <g id="patch_12">
    <path clip-path="url(#pe308fbdbde)" d="M 51.447273 126.911418 
L 54.981818 126.911418 
L 54.981818 126.911418 
L 51.447273 126.911418 
z
" style="fill:#337ab7;stroke:#ffffff;stroke-linejoin:miter;stroke-width:0.3;"/>
   </g>
   <g id="patch_13">
    <path clip-path="url(#pe308fbdbde)" d="M 54.981818 126.911418 
L 58.516364 126.911418 
L 58.516364 126.911418 
L 54.981818 126.911418 
z
" style="fill:#337ab7;stroke:#ffffff;stroke-linejoin:miter;stroke-width:0.3;"/>
   </g>
   <g id="patch_14">
    <path clip-path="url(#pe308fbdbde)" d="M 58.516364 126.911418 
L 62.050909 126.911418 
L 62.050909 126.911418 
L 58.516364 126.911418 
z
" style="fill:#337ab7;stroke:#ffffff;stroke-linejoin:miter;stroke-width:0.3;"/>
   </g>
   <g id="patch_15">
    <path clip-path="url(#pe308fbdbde)" d="M 62.050909 126.911418 
L 65.585455 126.911418 
L 65.585455 126.911418 
L 62.050909 126.911418 
z
" style="fill:#337ab7;stroke:#ffffff;stroke-linejoin:miter;stroke-width:0.3;"/>
   </g>
   <g id="patch_16">
    <path clip-path="url(#pe308fbdbde)" d="M 65.585455 126.911418 
L 69.12 126.911418 
L 69.12 126.911418 
L 65.585455 126.911418 
z
" style="fill:#337ab7;stroke:#ffffff;stroke-linejoin:miter;stroke-width:0.3;"/>
   </g>
   <g id="patch_17">
    <path clip-path="url(#pe308fbdbde)" d="M 69.12 126.911418 
L 72.654545 126.911418 
L 72.654545 126.911418 
L 69.12 126.911418 
z
" style="fill:#337ab7;stroke:#ffffff;stroke-linejoin:miter;stroke-width:0.3;"/>
   </g>
   <g id="patch_18">
    <path clip-path="url(#pe308fbdbde)" d="M 72.654545 126.911418 
L 76.189091 126.911418 
L 76.189091 126.911418 
L 72.654545 126.911418 
z
" style="fill:#337ab7;stroke:#ffffff;stroke-linejoin:miter;stroke-width:0.3;"/>
   </g>
   <g id="patch_19">
    <path clip-path="url(#pe308fbdbde)" d="M 76.189091 126.911418 
L 79.723636 126.911418 
L 79.723636 126.911418 
L 76.189091 126.911418 
z
" style="fill:#337ab7;stroke:#ffffff;stroke-linejoin:miter;stroke-width:0.3;"/>
   </g>
   <g id="patch_20">
    <path clip-path="url(#pe308fbdbde)" d="M 79.723636 126.911418 
L 83.258182 126.911418 
L 83.258182 126.899811 
L 79.723636 126.899811 
z
" style="fill:#337ab7;stroke:#ffffff;stroke-linejoin:miter;stroke-width:0.3;"/>
   </g>
   <g id="patch_21">
    <path clip-path="url(#pe308fbdbde)" d="M 83.258182 126.911418 
L 86.792727 126.911418 
L 86.792727 126.524866 
L 83.258182 126.524866 
z
" style="fill:#337ab7;stroke:#ffffff;stroke-linejoin:miter;stroke-width:0.3;"/>
   </g>
   <g id="patch_22">
    <path clip-path="url(#pe308fbdbde)" d="M 86.792727 126.911418 
L 90.327273 126.911418 
L 90.327273 126.911418 
L 86.792727 126.911418 
z
" style="fill:#337ab7;stroke:#ffffff;stroke-linejoin:miter;stroke-width:0.3;"/>
   </g>
   <g id="patch_23">
    <path clip-path="url(#pe308fbdbde)" d="M 90.327273 126.911418 
L 93.861818 126.911418 
L 93.861818 126.911418 
L 90.327273 126.911418 
z
" style="fill:#337ab7;stroke:#ffffff;stroke-linejoin:miter;stroke-width:0.3;"/>
   </g>
   <g id="patch_24">
    <path clip-path="url(#pe308fbdbde)" d="M 93.861818 126.911418 
L 97.396364 126.911418 
L 97.396364 126.911418 
L 93.861818 126.911418 
z
" style="fill:#337ab7;stroke:#ffffff;stroke-linejoin:miter;stroke-width:0.3;"/>
   </g>
   <g id="patch_25">
    <path clip-path="url(#pe308fbdbde)" d="M 97.396364 126.911418 
L 100.930909 126.911418 
L 100.930909 126.911418 
L 97.396364 126.911418 
z
" style="fill:#337ab7;stroke:#ffffff;stroke-linejoin:miter;stroke-width:0.3;"/>
   </g>
   <g id="patch_26">
    <path clip-path="url(#pe308fbdbde)" d="M 100.930909 126.911418 
L 104.465455 126.911418 
L 104.465455 126.911418 
L 100.930909 126.911418 
z
" style="fill:#337ab7;stroke:#ffffff;stroke-linejoin:miter;stroke-width:0.3;"/>
   </g>
   <g id="patch_27">
    <path clip-path="url(#pe308fbdbde)" d="M 104.465455 126.911418 
L 108 126.911418 
L 108 126.460273 
L 104.465455 126.460273 
z
" style="fill:#337ab7;stroke:#ffffff;stroke-linejoin:miter;stroke-width:0.3;"/>
   </g>
   <g id="patch_28">
    <path clip-path="url(#pe308fbdbde)" d="M 108 126.911418 
L 111.534545 126.911418 
L 111.534545 126.526885 
L 108 126.526885 
z
" style="fill:#337ab7;stroke:#ffffff;stroke-linejoin:miter;stroke-width:0.3;"/>
   </g>
   <g id="patch_29">
    <path clip-path="url(#pe308fbdbde)" d="M 111.534545 126.911418 
L 115.069091 126.911418 
L 115.069091 126.849726 
L 111.534545 126.849726 
z
" style="fill:#337ab7;stroke:#ffffff;stroke-linejoin:miter;stroke-width:0.3;"/>
   </g>
   <g id="patch_30">
    <path clip-path="url(#pe308fbdbde)" d="M 115.069091 126.911418 
L 118.603636 126.911418 
L 118.603636 126.839129 
L 115.069091 126.839129 
z
" style="fill:#337ab7;stroke:#ffffff;stroke-linejoin:miter;stroke-width:0.3;"/>
   </g>
   <g id="patch_31">
    <path clip-path="url(#pe308fbdbde)" d="M 118.603636 126.911418 
L 122.138182 126.911418 
L 122.138182 126.911418 
L 118.603636 126.911418 
z
" style="fill:#337ab7;stroke:#ffffff;stroke-linejoin:miter;stroke-width:0.3;"/>
   </g>
   <g id="patch_32">
    <path clip-path="url(#pe308fbdbde)" d="M 122.138182 126.911418 
L 125.672727 126.911418 
L 125.672727 126.911418 
L 122.138182 126.911418 
z
" style="fill:#337ab7;stroke:#ffffff;stroke-linejoin:miter;stroke-width:0.3;"/>
   </g>
   <g id="patch_33">
    <path clip-path="url(#pe308fbdbde)" d="M 125.672727 126.911418 
L 129.207273 126.911418 
L 129.207273 126.911418 
L 125.672727 126.911418 
z
" style="fill:#337ab7;stroke:#ffffff;stroke-linejoin:miter;stroke-width:0.3;"/>
   </g>
   <g id="patch_34">
    <path clip-path="url(#pe308fbdbde)" d="M 129.207273 126.911418 
L 132.741818 126.911418 
L 132.741818 126.911418 
L 129.207273 126.911418 
z
" style="fill:#337ab7;stroke:#ffffff;stroke-linejoin:miter;stroke-width:0.3;"/>
   </g>
   <g id="patch_35">
    <path clip-path="url(#pe308fbdbde)" d="M 132.741818 126.911418 
L 136.276364 126.911418 
L 136.276364 126.911418 
L 132.741818 126.911418 
z
" style="fill:#337ab7;stroke:#ffffff;stroke-linejoin:miter;stroke-width:0.3;"/>
   </g>
   <g id="patch_36">
    <path clip-path="url(#pe308fbdbde)" d="M 136.276364 126.911418 
L 139.810909 126.911418 
L 139.810909 126.911418 
L 136.276364 126.911418 
z
" style="fill:#337ab7;stroke:#ffffff;stroke-linejoin:miter;stroke-width:0.3;"/>
   </g>
   <g id="patch_37">
    <path clip-path="url(#pe308fbdbde)" d="M 139.810909 126.911418 
L 143.345455 126.911418 
L 143.345455 126.911418 
L 139.810909 126.911418 
z
" style="fill:#337ab7;stroke:#ffffff;stroke-linejoin:miter;stroke-width:0.3;"/>
   </g>
   <g id="patch_38">
    <path clip-path="url(#pe308fbdbde)" d="M 143.345455 126.911418 
L 146.88 126.911418 
L 146.88 126.911418 
L 143.345455 126.911418 
z
" style="fill:#337ab7;stroke:#ffffff;stroke-linejoin:miter;stroke-width:0.3;"/>
   </g>
   <g id="patch_39">
    <path clip-path="url(#pe308fbdbde)" d="M 146.88 126.911418 
L 150.414545 126.911418 
L 150.414545 126.911418 
L 146.88 126.911418 
z
" style="fill:#337ab7;stroke:#ffffff;stroke-linejoin:miter;stroke-width:0.3;"/>
   </g>
   <g id="patch_40">
    <path clip-path="url(#pe308fbdbde)" d="M 150.414545 126.911418 
L 153.949091 126.911418 
L 153.949091 126.911418 
L 150.414545 126.911418 
z
" style="fill:#337ab7;stroke:#ffffff;stroke-linejoin:miter;stroke-width:0.3;"/>
   </g>
   <g id="patch_41">
    <path clip-path="url(#pe308fbdbde)" d="M 153.949091 126.911418 
L 157.483636 126.911418 
L 157.483636 126.911418 
L 153.949091 126.911418 
z
" style="fill:#337ab7;stroke:#ffffff;stroke-linejoin:miter;stroke-width:0.3;"/>
   </g>
   <g id="patch_42">
    <path clip-path="url(#pe308fbdbde)" d="M 157.483636 126.911418 
L 161.018182 126.911418 
L 161.018182 126.911418 
L 157.483636 126.911418 
z
" style="fill:#337ab7;stroke:#ffffff;stroke-linejoin:miter;stroke-width:0.3;"/>
   </g>
   <g id="patch_43">
    <path clip-path="url(#pe308fbdbde)" d="M 161.018182 126.911418 
L 164.552727 126.911418 
L 164.552727 126.911418 
L 161.018182 126.911418 
z
" style="fill:#337ab7;stroke:#ffffff;stroke-linejoin:miter;stroke-width:0.3;"/>
   </g>
   <g id="patch_44">
    <path clip-path="url(#pe308fbdbde)" d="M 164.552727 126.911418 
L 168.087273 126.911418 
L 168.087273 126.911418 
L 164.552727 126.911418 
z
" style="fill:#337ab7;stroke:#ffffff;stroke-linejoin:miter;stroke-width:0.3;"/>
   </g>
   <g id="patch_45">
    <path clip-path="url(#pe308fbdbde)" d="M 168.087273 126.911418 
L 171.621818 126.911418 
L 171.621818 126.911418 
L 168.087273 126.911418 
z
" style="fill:#337ab7;stroke:#ffffff;stroke-linejoin:miter;stroke-width:0.3;"/>
   </g>
   <g id="patch_46">
    <path clip-path="url(#pe308fbdbde)" d="M 171.621818 126.911418 
L 175.156364 126.911418 
L 175.156364 125.971911 
L 171.621818 125.971911 
z
" style="fill:#337ab7;stroke:#ffffff;stroke-linejoin:miter;stroke-width:0.3;"/>
   </g>
   <g id="patch_47">
    <path clip-path="url(#pe308fbdbde)" d="M 175.156364 126.911418 
L 178.690909 126.911418 
L 178.690909 69.49026 
L 175.156364 69.49026 
z
" style="fill:#337ab7;stroke:#ffffff;stroke-linejoin:miter;stroke-width:0.3;"/>
   </g>
   <g id="patch_48">
    <path clip-path="url(#pe308fbdbde)" d="M 178.690909 126.911418 
L 182.225455 126.911418 
L 182.225455 76.701132 
L 178.690909 76.701132 
z
" style="fill:#337ab7;stroke:#ffffff;stroke-linejoin:miter;stroke-width:0.3;"/>
   </g>
   <g id="patch_49">
    <path clip-path="url(#pe308fbdbde)" d="M 182.225455 126.911418 
L 185.76 126.911418 
L 185.76 61.803643 
L 182.225455 61.803643 
z
" style="fill:#337ab7;stroke:#ffffff;stroke-linejoin:miter;stroke-width:0.3;"/>
   </g>
   <g id="patch_50">
    <path clip-path="url(#pe308fbdbde)" d="M 185.76 126.911418 
L 189.294545 126.911418 
L 189.294545 53.776018 
L 185.76 53.776018 
z
" style="fill:#337ab7;stroke:#ffffff;stroke-linejoin:miter;stroke-width:0.3;"/>
   </g>
   <g id="patch_51">
    <path clip-path="url(#pe308fbdbde)" d="M 189.294545 126.911418 
L 192.829091 126.911418 
L 192.829091 16.329115 
L 189.294545 16.329115 
z
" style="fill:#337ab7;stroke:#ffffff;stroke-linejoin:miter;stroke-width:0.3;"/>
   </g>
   <g id="patch_52">
    <path clip-path="url(#pe308fbdbde)" d="M 192.829091 126.911418 
L 196.363636 126.911418 
L 196.363636 101.943915 
L 192.829091 101.943915 
z
" style="fill:#337ab7;stroke:#ffffff;stroke-linejoin:miter;stroke-width:0.3;"/>
   </g>
   <g id="patch_53">
    <path d="M 10.8 126.911418 
L 10.8 10.8 
" style="fill:none;"/>
   </g>
   <g id="patch_54">
    <path d="M 205.2 126.911418 
L 205.2 10.8 
" style="fill:none;"/>
   </g>
   <g id="patch_55">
    <path d="M 10.8 126.911418 
L 205.2 126.911418 
" style="fill:none;"/>
   </g>
   <g id="patch_56">
    <path d="M 10.8 10.8 
L 205.2 10.8 
" style="fill:none;"/>
   </g>
  </g>
 </g>
 <defs>
  <clipPath id="pe308fbdbde">
   <rect height="116.111418" width="194.4" x="10.8" y="10.8"/>
  </clipPath>
 </defs>
</svg>
