<?xml version="1.0" encoding="utf-8" standalone="no"?>
<!DOCTYPE svg PUBLIC "-//W3C//DTD SVG 1.1//EN"
  "http://www.w3.org/Graphics/SVG/1.1/DTD/svg11.dtd">
<!-- Created with matplotlib (https://matplotlib.org/) -->
<svg height="162pt" version="1.1" viewBox="0 0 216 162" width="216pt" xmlns="http://www.w3.org/2000/svg" xmlns:xlink="http://www.w3.org/1999/xlink">
 <metadata>
  <rdf:RDF xmlns:cc="http://creativecommons.org/ns#" xmlns:dc="http://purl.org/dc/elements/1.1/" xmlns:rdf="http://www.w3.org/1999/02/22-rdf-syntax-ns#">
   <cc:Work>
    <dc:type rdf:resource="http://purl.org/dc/dcmitype/StillImage"/>
    <dc:date>2021-01-14T13:37:14.282527</dc:date>
    <dc:format>image/svg+xml</dc:format>
    <dc:creator>
     <cc:Agent>
      <dc:title>Matplotlib v3.3.3, https://matplotlib.org/</dc:title>
     </cc:Agent>
    </dc:creator>
   </cc:Work>
  </rdf:RDF>
 </metadata>
 <defs>
  <style type="text/css">*{stroke-linecap:butt;stroke-linejoin:round;}</style>
 </defs>
 <g id="figure_1">
  <g id="patch_1">
   <path d="M 0 162 
L 216 162 
L 216 0 
L 0 0 
z
" style="fill:#ffffff;"/>
  </g>
  <g id="axes_1">
   <g id="patch_2">
    <path d="M 10.8 120.547457 
L 205.2 120.547457 
L 205.2 10.8 
L 10.8 10.8 
z
" style="fill:#ffffff;"/>
   </g>
   <g id="matplotlib.axis_1">
    <g id="xtick_1">
     <g id="text_1">
      <!-- 0 -->
      <g style="fill:#262626;" transform="translate(17.449225 138.242268)rotate(-45)scale(0.08 -0.08)">
       <defs>
        <path d="M 4.15625 35.296875 
Q 4.15625 48 6.765625 55.734375 
Q 9.375 63.484375 14.515625 67.671875 
Q 19.671875 71.875 27.484375 71.875 
Q 33.25 71.875 37.59375 69.546875 
Q 41.9375 67.234375 44.765625 62.859375 
Q 47.609375 58.5 49.21875 52.21875 
Q 50.828125 45.953125 50.828125 35.296875 
Q 50.828125 22.703125 48.234375 14.96875 
Q 45.65625 7.234375 40.5 3 
Q 35.359375 -1.21875 27.484375 -1.21875 
Q 17.140625 -1.21875 11.234375 6.203125 
Q 4.15625 15.140625 4.15625 35.296875 
z
M 13.1875 35.296875 
Q 13.1875 17.671875 17.3125 11.828125 
Q 21.4375 6 27.484375 6 
Q 33.546875 6 37.671875 11.859375 
Q 41.796875 17.71875 41.796875 35.296875 
Q 41.796875 52.984375 37.671875 58.78125 
Q 33.546875 64.59375 27.390625 64.59375 
Q 21.34375 64.59375 17.71875 59.46875 
Q 13.1875 52.9375 13.1875 35.296875 
z
" id="ArialMT-48"/>
       </defs>
       <use xlink:href="#ArialMT-48"/>
      </g>
     </g>
    </g>
    <g id="xtick_2">
     <g id="text_2">
      <!-- 20000 -->
      <g style="fill:#262626;" transform="translate(50.376871 150.825233)rotate(-45)scale(0.08 -0.08)">
       <defs>
        <path d="M 50.34375 8.453125 
L 50.34375 0 
L 3.03125 0 
Q 2.9375 3.171875 4.046875 6.109375 
Q 5.859375 10.9375 9.828125 15.625 
Q 13.8125 20.3125 21.34375 26.46875 
Q 33.015625 36.03125 37.109375 41.625 
Q 41.21875 47.21875 41.21875 52.203125 
Q 41.21875 57.421875 37.46875 61 
Q 33.734375 64.59375 27.734375 64.59375 
Q 21.390625 64.59375 17.578125 60.78125 
Q 13.765625 56.984375 13.71875 50.25 
L 4.6875 51.171875 
Q 5.609375 61.28125 11.65625 66.578125 
Q 17.71875 71.875 27.9375 71.875 
Q 38.234375 71.875 44.234375 66.15625 
Q 50.25 60.453125 50.25 52 
Q 50.25 47.703125 48.484375 43.546875 
Q 46.734375 39.40625 42.65625 34.8125 
Q 38.578125 30.21875 29.109375 22.21875 
Q 21.1875 15.578125 18.9375 13.203125 
Q 16.703125 10.84375 15.234375 8.453125 
z
" id="ArialMT-50"/>
       </defs>
       <use xlink:href="#ArialMT-50"/>
       <use x="55.615234" xlink:href="#ArialMT-48"/>
       <use x="111.230469" xlink:href="#ArialMT-48"/>
       <use x="166.845703" xlink:href="#ArialMT-48"/>
       <use x="222.460938" xlink:href="#ArialMT-48"/>
      </g>
     </g>
    </g>
    <g id="xtick_3">
     <g id="text_3">
      <!-- 40000 -->
      <g style="fill:#262626;" transform="translate(89.595998 150.825233)rotate(-45)scale(0.08 -0.08)">
       <defs>
        <path d="M 32.328125 0 
L 32.328125 17.140625 
L 1.265625 17.140625 
L 1.265625 25.203125 
L 33.9375 71.578125 
L 41.109375 71.578125 
L 41.109375 25.203125 
L 50.78125 25.203125 
L 50.78125 17.140625 
L 41.109375 17.140625 
L 41.109375 0 
z
M 32.328125 25.203125 
L 32.328125 57.46875 
L 9.90625 25.203125 
z
" id="ArialMT-52"/>
       </defs>
       <use xlink:href="#ArialMT-52"/>
       <use x="55.615234" xlink:href="#ArialMT-48"/>
       <use x="111.230469" xlink:href="#ArialMT-48"/>
       <use x="166.845703" xlink:href="#ArialMT-48"/>
       <use x="222.460938" xlink:href="#ArialMT-48"/>
      </g>
     </g>
    </g>
    <g id="xtick_4">
     <g id="text_4">
      <!-- 60000 -->
      <g style="fill:#262626;" transform="translate(128.815126 150.825233)rotate(-45)scale(0.08 -0.08)">
       <defs>
        <path d="M 49.75 54.046875 
L 41.015625 53.375 
Q 39.84375 58.546875 37.703125 60.890625 
Q 34.125 64.65625 28.90625 64.65625 
Q 24.703125 64.65625 21.53125 62.3125 
Q 17.390625 59.28125 14.984375 53.46875 
Q 12.59375 47.65625 12.5 36.921875 
Q 15.671875 41.75 20.265625 44.09375 
Q 24.859375 46.4375 29.890625 46.4375 
Q 38.671875 46.4375 44.84375 39.96875 
Q 51.03125 33.5 51.03125 23.25 
Q 51.03125 16.5 48.125 10.71875 
Q 45.21875 4.9375 40.140625 1.859375 
Q 35.0625 -1.21875 28.609375 -1.21875 
Q 17.625 -1.21875 10.6875 6.859375 
Q 3.765625 14.9375 3.765625 33.5 
Q 3.765625 54.25 11.421875 63.671875 
Q 18.109375 71.875 29.4375 71.875 
Q 37.890625 71.875 43.28125 67.140625 
Q 48.6875 62.40625 49.75 54.046875 
z
M 13.875 23.1875 
Q 13.875 18.65625 15.796875 14.5 
Q 17.71875 10.359375 21.1875 8.171875 
Q 24.65625 6 28.46875 6 
Q 34.03125 6 38.03125 10.484375 
Q 42.046875 14.984375 42.046875 22.703125 
Q 42.046875 30.125 38.078125 34.390625 
Q 34.125 38.671875 28.125 38.671875 
Q 22.171875 38.671875 18.015625 34.390625 
Q 13.875 30.125 13.875 23.1875 
z
" id="ArialMT-54"/>
       </defs>
       <use xlink:href="#ArialMT-54"/>
       <use x="55.615234" xlink:href="#ArialMT-48"/>
       <use x="111.230469" xlink:href="#ArialMT-48"/>
       <use x="166.845703" xlink:href="#ArialMT-48"/>
       <use x="222.460938" xlink:href="#ArialMT-48"/>
      </g>
     </g>
    </g>
    <g id="xtick_5">
     <g id="text_5">
      <!-- 80000 -->
      <g style="fill:#262626;" transform="translate(168.034254 150.825233)rotate(-45)scale(0.08 -0.08)">
       <defs>
        <path d="M 17.671875 38.8125 
Q 12.203125 40.828125 9.5625 44.53125 
Q 6.9375 48.25 6.9375 53.421875 
Q 6.9375 61.234375 12.546875 66.546875 
Q 18.171875 71.875 27.484375 71.875 
Q 36.859375 71.875 42.578125 66.421875 
Q 48.296875 60.984375 48.296875 53.171875 
Q 48.296875 48.1875 45.671875 44.5 
Q 43.0625 40.828125 37.75 38.8125 
Q 44.34375 36.671875 47.78125 31.875 
Q 51.21875 27.09375 51.21875 20.453125 
Q 51.21875 11.28125 44.71875 5.03125 
Q 38.234375 -1.21875 27.640625 -1.21875 
Q 17.046875 -1.21875 10.546875 5.046875 
Q 4.046875 11.328125 4.046875 20.703125 
Q 4.046875 27.6875 7.59375 32.390625 
Q 11.140625 37.109375 17.671875 38.8125 
z
M 15.921875 53.71875 
Q 15.921875 48.640625 19.1875 45.40625 
Q 22.46875 42.1875 27.6875 42.1875 
Q 32.765625 42.1875 36.015625 45.375 
Q 39.265625 48.578125 39.265625 53.21875 
Q 39.265625 58.0625 35.90625 61.359375 
Q 32.5625 64.65625 27.59375 64.65625 
Q 22.5625 64.65625 19.234375 61.421875 
Q 15.921875 58.203125 15.921875 53.71875 
z
M 13.09375 20.65625 
Q 13.09375 16.890625 14.875 13.375 
Q 16.65625 9.859375 20.171875 7.921875 
Q 23.6875 6 27.734375 6 
Q 34.03125 6 38.125 10.046875 
Q 42.234375 14.109375 42.234375 20.359375 
Q 42.234375 26.703125 38.015625 30.859375 
Q 33.796875 35.015625 27.4375 35.015625 
Q 21.234375 35.015625 17.15625 30.90625 
Q 13.09375 26.8125 13.09375 20.65625 
z
" id="ArialMT-56"/>
       </defs>
       <use xlink:href="#ArialMT-56"/>
       <use x="55.615234" xlink:href="#ArialMT-48"/>
       <use x="111.230469" xlink:href="#ArialMT-48"/>
       <use x="166.845703" xlink:href="#ArialMT-48"/>
       <use x="222.460938" xlink:href="#ArialMT-48"/>
      </g>
     </g>
    </g>
   </g>
   <g id="patch_3">
    <path clip-path="url(#pa6109af546)" d="M 19.636364 120.547457 
L 23.170909 120.547457 
L 23.170909 69.662044 
L 19.636364 69.662044 
z
" style="fill:#337ab7;stroke:#ffffff;stroke-linejoin:miter;stroke-width:0.3;"/>
   </g>
   <g id="patch_4">
    <path clip-path="url(#pa6109af546)" d="M 23.170909 120.547457 
L 26.705455 120.547457 
L 26.705455 120.547457 
L 23.170909 120.547457 
z
" style="fill:#337ab7;stroke:#ffffff;stroke-linejoin:miter;stroke-width:0.3;"/>
   </g>
   <g id="patch_5">
    <path clip-path="url(#pa6109af546)" d="M 26.705455 120.547457 
L 30.24 120.547457 
L 30.24 120.375547 
L 26.705455 120.375547 
z
" style="fill:#337ab7;stroke:#ffffff;stroke-linejoin:miter;stroke-width:0.3;"/>
   </g>
   <g id="patch_6">
    <path clip-path="url(#pa6109af546)" d="M 30.24 120.547457 
L 33.774545 120.547457 
L 33.774545 112.123858 
L 30.24 112.123858 
z
" style="fill:#337ab7;stroke:#ffffff;stroke-linejoin:miter;stroke-width:0.3;"/>
   </g>
   <g id="patch_7">
    <path clip-path="url(#pa6109af546)" d="M 33.774545 120.547457 
L 37.309091 120.547457 
L 37.309091 120.547457 
L 33.774545 120.547457 
z
" style="fill:#337ab7;stroke:#ffffff;stroke-linejoin:miter;stroke-width:0.3;"/>
   </g>
   <g id="patch_8">
    <path clip-path="url(#pa6109af546)" d="M 37.309091 120.547457 
L 40.843636 120.547457 
L 40.843636 116.593523 
L 37.309091 116.593523 
z
" style="fill:#337ab7;stroke:#ffffff;stroke-linejoin:miter;stroke-width:0.3;"/>
   </g>
   <g id="patch_9">
    <path clip-path="url(#pa6109af546)" d="M 40.843636 120.547457 
L 44.378182 120.547457 
L 44.378182 120.547457 
L 40.843636 120.547457 
z
" style="fill:#337ab7;stroke:#ffffff;stroke-linejoin:miter;stroke-width:0.3;"/>
   </g>
   <g id="patch_10">
    <path clip-path="url(#pa6109af546)" d="M 44.378182 120.547457 
L 47.912727 120.547457 
L 47.912727 118.140714 
L 44.378182 118.140714 
z
" style="fill:#337ab7;stroke:#ffffff;stroke-linejoin:miter;stroke-width:0.3;"/>
   </g>
   <g id="patch_11">
    <path clip-path="url(#pa6109af546)" d="M 47.912727 120.547457 
L 51.447273 120.547457 
L 51.447273 110.920487 
L 47.912727 110.920487 
z
" style="fill:#337ab7;stroke:#ffffff;stroke-linejoin:miter;stroke-width:0.3;"/>
   </g>
   <g id="patch_12">
    <path clip-path="url(#pa6109af546)" d="M 51.447273 120.547457 
L 54.981818 120.547457 
L 54.981818 118.656445 
L 51.447273 118.656445 
z
" style="fill:#337ab7;stroke:#ffffff;stroke-linejoin:miter;stroke-width:0.3;"/>
   </g>
   <g id="patch_13">
    <path clip-path="url(#pa6109af546)" d="M 54.981818 120.547457 
L 58.516364 120.547457 
L 58.516364 120.547457 
L 54.981818 120.547457 
z
" style="fill:#337ab7;stroke:#ffffff;stroke-linejoin:miter;stroke-width:0.3;"/>
   </g>
   <g id="patch_14">
    <path clip-path="url(#pa6109af546)" d="M 58.516364 120.547457 
L 62.050909 120.547457 
L 62.050909 96.308122 
L 58.516364 96.308122 
z
" style="fill:#337ab7;stroke:#ffffff;stroke-linejoin:miter;stroke-width:0.3;"/>
   </g>
   <g id="patch_15">
    <path clip-path="url(#pa6109af546)" d="M 62.050909 120.547457 
L 65.585455 120.547457 
L 65.585455 109.889026 
L 62.050909 109.889026 
z
" style="fill:#337ab7;stroke:#ffffff;stroke-linejoin:miter;stroke-width:0.3;"/>
   </g>
   <g id="patch_16">
    <path clip-path="url(#pa6109af546)" d="M 65.585455 120.547457 
L 69.12 120.547457 
L 69.12 118.140714 
L 65.585455 118.140714 
z
" style="fill:#337ab7;stroke:#ffffff;stroke-linejoin:miter;stroke-width:0.3;"/>
   </g>
   <g id="patch_17">
    <path clip-path="url(#pa6109af546)" d="M 69.12 120.547457 
L 72.654545 120.547457 
L 72.654545 110.920487 
L 69.12 110.920487 
z
" style="fill:#337ab7;stroke:#ffffff;stroke-linejoin:miter;stroke-width:0.3;"/>
   </g>
   <g id="patch_18">
    <path clip-path="url(#pa6109af546)" d="M 72.654545 120.547457 
L 76.189091 120.547457 
L 76.189091 100.262056 
L 72.654545 100.262056 
z
" style="fill:#337ab7;stroke:#ffffff;stroke-linejoin:miter;stroke-width:0.3;"/>
   </g>
   <g id="patch_19">
    <path clip-path="url(#pa6109af546)" d="M 76.189091 120.547457 
L 79.723636 120.547457 
L 79.723636 120.547457 
L 76.189091 120.547457 
z
" style="fill:#337ab7;stroke:#ffffff;stroke-linejoin:miter;stroke-width:0.3;"/>
   </g>
   <g id="patch_20">
    <path clip-path="url(#pa6109af546)" d="M 79.723636 120.547457 
L 83.258182 120.547457 
L 83.258182 95.276661 
L 79.723636 95.276661 
z
" style="fill:#337ab7;stroke:#ffffff;stroke-linejoin:miter;stroke-width:0.3;"/>
   </g>
   <g id="patch_21">
    <path clip-path="url(#pa6109af546)" d="M 83.258182 120.547457 
L 86.792727 120.547457 
L 86.792727 100.777786 
L 83.258182 100.777786 
z
" style="fill:#337ab7;stroke:#ffffff;stroke-linejoin:miter;stroke-width:0.3;"/>
   </g>
   <g id="patch_22">
    <path clip-path="url(#pa6109af546)" d="M 86.792727 120.547457 
L 90.327273 120.547457 
L 90.327273 111.436217 
L 86.792727 111.436217 
z
" style="fill:#337ab7;stroke:#ffffff;stroke-linejoin:miter;stroke-width:0.3;"/>
   </g>
   <g id="patch_23">
    <path clip-path="url(#pa6109af546)" d="M 90.327273 120.547457 
L 93.861818 120.547457 
L 93.861818 115.905882 
L 90.327273 115.905882 
z
" style="fill:#337ab7;stroke:#ffffff;stroke-linejoin:miter;stroke-width:0.3;"/>
   </g>
   <g id="patch_24">
    <path clip-path="url(#pa6109af546)" d="M 93.861818 120.547457 
L 97.396364 120.547457 
L 97.396364 118.828355 
L 93.861818 118.828355 
z
" style="fill:#337ab7;stroke:#ffffff;stroke-linejoin:miter;stroke-width:0.3;"/>
   </g>
   <g id="patch_25">
    <path clip-path="url(#pa6109af546)" d="M 97.396364 120.547457 
L 100.930909 120.547457 
L 100.930909 83.242948 
L 97.396364 83.242948 
z
" style="fill:#337ab7;stroke:#ffffff;stroke-linejoin:miter;stroke-width:0.3;"/>
   </g>
   <g id="patch_26">
    <path clip-path="url(#pa6109af546)" d="M 100.930909 120.547457 
L 104.465455 120.547457 
L 104.465455 120.547457 
L 100.930909 120.547457 
z
" style="fill:#337ab7;stroke:#ffffff;stroke-linejoin:miter;stroke-width:0.3;"/>
   </g>
   <g id="patch_27">
    <path clip-path="url(#pa6109af546)" d="M 104.465455 120.547457 
L 108 120.547457 
L 108 120.547457 
L 104.465455 120.547457 
z
" style="fill:#337ab7;stroke:#ffffff;stroke-linejoin:miter;stroke-width:0.3;"/>
   </g>
   <g id="patch_28">
    <path clip-path="url(#pa6109af546)" d="M 108 120.547457 
L 111.534545 120.547457 
L 111.534545 120.547457 
L 108 120.547457 
z
" style="fill:#337ab7;stroke:#ffffff;stroke-linejoin:miter;stroke-width:0.3;"/>
   </g>
   <g id="patch_29">
    <path clip-path="url(#pa6109af546)" d="M 111.534545 120.547457 
L 115.069091 120.547457 
L 115.069091 78.945194 
L 111.534545 78.945194 
z
" style="fill:#337ab7;stroke:#ffffff;stroke-linejoin:miter;stroke-width:0.3;"/>
   </g>
   <g id="patch_30">
    <path clip-path="url(#pa6109af546)" d="M 115.069091 120.547457 
L 118.603636 120.547457 
L 118.603636 16.026069 
L 115.069091 16.026069 
z
" style="fill:#337ab7;stroke:#ffffff;stroke-linejoin:miter;stroke-width:0.3;"/>
   </g>
   <g id="patch_31">
    <path clip-path="url(#pa6109af546)" d="M 118.603636 120.547457 
L 122.138182 120.547457 
L 122.138182 60.722715 
L 118.603636 60.722715 
z
" style="fill:#337ab7;stroke:#ffffff;stroke-linejoin:miter;stroke-width:0.3;"/>
   </g>
   <g id="patch_32">
    <path clip-path="url(#pa6109af546)" d="M 122.138182 120.547457 
L 125.672727 120.547457 
L 125.672727 120.203636 
L 122.138182 120.203636 
z
" style="fill:#337ab7;stroke:#ffffff;stroke-linejoin:miter;stroke-width:0.3;"/>
   </g>
   <g id="patch_33">
    <path clip-path="url(#pa6109af546)" d="M 125.672727 120.547457 
L 129.207273 120.547457 
L 129.207273 109.717116 
L 125.672727 109.717116 
z
" style="fill:#337ab7;stroke:#ffffff;stroke-linejoin:miter;stroke-width:0.3;"/>
   </g>
   <g id="patch_34">
    <path clip-path="url(#pa6109af546)" d="M 129.207273 120.547457 
L 132.741818 120.547457 
L 132.741818 120.547457 
L 129.207273 120.547457 
z
" style="fill:#337ab7;stroke:#ffffff;stroke-linejoin:miter;stroke-width:0.3;"/>
   </g>
   <g id="patch_35">
    <path clip-path="url(#pa6109af546)" d="M 132.741818 120.547457 
L 136.276364 120.547457 
L 136.276364 117.624984 
L 132.741818 117.624984 
z
" style="fill:#337ab7;stroke:#ffffff;stroke-linejoin:miter;stroke-width:0.3;"/>
   </g>
   <g id="patch_36">
    <path clip-path="url(#pa6109af546)" d="M 136.276364 120.547457 
L 139.810909 120.547457 
L 139.810909 120.547457 
L 136.276364 120.547457 
z
" style="fill:#337ab7;stroke:#ffffff;stroke-linejoin:miter;stroke-width:0.3;"/>
   </g>
   <g id="patch_37">
    <path clip-path="url(#pa6109af546)" d="M 139.810909 120.547457 
L 143.345455 120.547457 
L 143.345455 116.765433 
L 139.810909 116.765433 
z
" style="fill:#337ab7;stroke:#ffffff;stroke-linejoin:miter;stroke-width:0.3;"/>
   </g>
   <g id="patch_38">
    <path clip-path="url(#pa6109af546)" d="M 143.345455 120.547457 
L 146.88 120.547457 
L 146.88 120.547457 
L 143.345455 120.547457 
z
" style="fill:#337ab7;stroke:#ffffff;stroke-linejoin:miter;stroke-width:0.3;"/>
   </g>
   <g id="patch_39">
    <path clip-path="url(#pa6109af546)" d="M 146.88 120.547457 
L 150.414545 120.547457 
L 150.414545 120.547457 
L 146.88 120.547457 
z
" style="fill:#337ab7;stroke:#ffffff;stroke-linejoin:miter;stroke-width:0.3;"/>
   </g>
   <g id="patch_40">
    <path clip-path="url(#pa6109af546)" d="M 150.414545 120.547457 
L 153.949091 120.547457 
L 153.949091 102.668798 
L 150.414545 102.668798 
z
" style="fill:#337ab7;stroke:#ffffff;stroke-linejoin:miter;stroke-width:0.3;"/>
   </g>
   <g id="patch_41">
    <path clip-path="url(#pa6109af546)" d="M 153.949091 120.547457 
L 157.483636 120.547457 
L 157.483636 117.796894 
L 153.949091 117.796894 
z
" style="fill:#337ab7;stroke:#ffffff;stroke-linejoin:miter;stroke-width:0.3;"/>
   </g>
   <g id="patch_42">
    <path clip-path="url(#pa6109af546)" d="M 157.483636 120.547457 
L 161.018182 120.547457 
L 161.018182 112.295768 
L 157.483636 112.295768 
z
" style="fill:#337ab7;stroke:#ffffff;stroke-linejoin:miter;stroke-width:0.3;"/>
   </g>
   <g id="patch_43">
    <path clip-path="url(#pa6109af546)" d="M 161.018182 120.547457 
L 164.552727 120.547457 
L 164.552727 120.203636 
L 161.018182 120.203636 
z
" style="fill:#337ab7;stroke:#ffffff;stroke-linejoin:miter;stroke-width:0.3;"/>
   </g>
   <g id="patch_44">
    <path clip-path="url(#pa6109af546)" d="M 164.552727 120.547457 
L 168.087273 120.547457 
L 168.087273 116.937343 
L 164.552727 116.937343 
z
" style="fill:#337ab7;stroke:#ffffff;stroke-linejoin:miter;stroke-width:0.3;"/>
   </g>
   <g id="patch_45">
    <path clip-path="url(#pa6109af546)" d="M 168.087273 120.547457 
L 171.621818 120.547457 
L 171.621818 85.305871 
L 168.087273 85.305871 
z
" style="fill:#337ab7;stroke:#ffffff;stroke-linejoin:miter;stroke-width:0.3;"/>
   </g>
   <g id="patch_46">
    <path clip-path="url(#pa6109af546)" d="M 171.621818 120.547457 
L 175.156364 120.547457 
L 175.156364 47.485632 
L 171.621818 47.485632 
z
" style="fill:#337ab7;stroke:#ffffff;stroke-linejoin:miter;stroke-width:0.3;"/>
   </g>
   <g id="patch_47">
    <path clip-path="url(#pa6109af546)" d="M 175.156364 120.547457 
L 178.690909 120.547457 
L 178.690909 113.499139 
L 175.156364 113.499139 
z
" style="fill:#337ab7;stroke:#ffffff;stroke-linejoin:miter;stroke-width:0.3;"/>
   </g>
   <g id="patch_48">
    <path clip-path="url(#pa6109af546)" d="M 178.690909 120.547457 
L 182.225455 120.547457 
L 182.225455 120.547457 
L 178.690909 120.547457 
z
" style="fill:#337ab7;stroke:#ffffff;stroke-linejoin:miter;stroke-width:0.3;"/>
   </g>
   <g id="patch_49">
    <path clip-path="url(#pa6109af546)" d="M 182.225455 120.547457 
L 185.76 120.547457 
L 185.76 108.685655 
L 182.225455 108.685655 
z
" style="fill:#337ab7;stroke:#ffffff;stroke-linejoin:miter;stroke-width:0.3;"/>
   </g>
   <g id="patch_50">
    <path clip-path="url(#pa6109af546)" d="M 185.76 120.547457 
L 189.294545 120.547457 
L 189.294545 91.322727 
L 185.76 91.322727 
z
" style="fill:#337ab7;stroke:#ffffff;stroke-linejoin:miter;stroke-width:0.3;"/>
   </g>
   <g id="patch_51">
    <path clip-path="url(#pa6109af546)" d="M 189.294545 120.547457 
L 192.829091 120.547457 
L 192.829091 118.312624 
L 189.294545 118.312624 
z
" style="fill:#337ab7;stroke:#ffffff;stroke-linejoin:miter;stroke-width:0.3;"/>
   </g>
   <g id="patch_52">
    <path clip-path="url(#pa6109af546)" d="M 192.829091 120.547457 
L 196.363636 120.547457 
L 196.363636 62.269907 
L 192.829091 62.269907 
z
" style="fill:#337ab7;stroke:#ffffff;stroke-linejoin:miter;stroke-width:0.3;"/>
   </g>
   <g id="patch_53">
    <path d="M 10.8 120.547457 
L 10.8 10.8 
" style="fill:none;"/>
   </g>
   <g id="patch_54">
    <path d="M 205.2 120.547457 
L 205.2 10.8 
" style="fill:none;"/>
   </g>
   <g id="patch_55">
    <path d="M 10.8 120.547457 
L 205.2 120.547457 
" style="fill:none;"/>
   </g>
   <g id="patch_56">
    <path d="M 10.8 10.8 
L 205.2 10.8 
" style="fill:none;"/>
   </g>
  </g>
 </g>
 <defs>
  <clipPath id="pa6109af546">
   <rect height="109.747457" width="194.4" x="10.8" y="10.8"/>
  </clipPath>
 </defs>
</svg>
